<?xml version="1.0" encoding="utf-8"?>
<!-- Generator: Adobe Illustrator 27.5.0, SVG Export Plug-In . SVG Version: 6.00 Build 0)  -->
<svg version="1.1" xmlns="http://www.w3.org/2000/svg" xmlns:xlink="http://www.w3.org/1999/xlink" x="0px" y="0px"
	 viewBox="0 0 750 500" style="enable-background:new 0 0 750 500;" xml:space="preserve">
<g id="BACKGROUND">
	<rect style="fill:#FFFFFF;" width="750" height="499.929"/>
</g>
<g id="OBJECTS">
	<g>
		<path style="opacity:0.08;fill:#585F78;" d="M290.61,79.809c-5.843,0.668-13.314,0.496-15.658-4.716
			c-0.794-1.764-0.77-3.788-1.529-5.567c-2.153-5.04-9.068-5.845-14.713-5.875c-11.847-0.062-23.694-0.125-35.541-0.187
			c-4.11-0.022-8.333-0.024-12.168,1.403c-2.629,0.978-5.063,2.702-6.313,5.139c-2.652,5.167,0.749,11.327,4.803,15.561
			c4.054,4.234,9.093,8.142,10.494,13.747c1.174,4.696-0.491,9.553-1.603,14.263c-1.112,4.71-1.511,10.147,1.651,13.892
			c3.456,4.093,10.236,4.961,12.765,9.644c1.335,2.471,1.124,5.439,1.917,8.12c1.416,4.79,5.948,8.212,10.788,9.935
			c4.84,1.723,10.066,2.061,15.176,2.746c5.15,0.691,11.11,2.452,12.725,7.224c2.659,7.856-9.002,15.564-5.918,23.273
			c2.02,5.048,9.198,6.413,11.88,11.165c2.177,3.858,0.846,9.048,3.521,12.603c1.413,1.878,3.692,2.928,5.523,4.432
			c6.376,5.238,6.229,14.702,4.766,22.66c-1.464,7.959-3.61,16.615,0.305,23.76c1.134,2.069,2.997,4.028,5.411,4.251
			c3.113,0.288,5.762-2.519,6.45-5.464c0.688-2.946-0.027-6.001-0.471-8.99c-0.852-5.735-0.527-12.076,3.217-16.603
			c4.284-5.178,12.736-7.832,13.399-14.429c0.18-1.791-0.3-3.649,0.237-5.372c1.151-3.695,6.053-4.745,8.76-7.584
			c4.207-4.413,2.033-11.402,2.698-17.366c0.369-3.31,1.694-6.475,1.985-9.792s-0.809-7.125-3.892-8.614
			c-3.061-1.479-6.885-0.16-10.095-1.307c-4.998-1.785-5.884-8.07-8.465-12.572c-3.204-5.586-9.755-8.82-16.318-9.604
			c-6.563-0.784-13.193,0.557-19.572,2.241c-2.004,0.529-4.066,1.098-6.127,0.847c-2.061-0.251-4.142-1.559-4.547-3.527
			c-0.22-1.07,0.072-2.181-0.059-3.265c-0.395-3.278-4.155-4.909-7.08-6.615c-2.925-1.706-5.555-5.668-3.143-8.006
			c0.186-1.122,1.711-1.592,2.826-1.227c1.115,0.364,1.939,1.254,2.841,1.983c2.974,2.402,7.285,3.154,10.941,1.909
			c3.656-1.245,6.525-4.442,7.281-8.113c0.432-2.098,0.221-4.311,0.917-6.341c1.084-3.166,4.22-5.329,7.509-6.344
			c3.29-1.015,6.796-1.09,10.234-1.404c1.982-0.181,4.124-0.525,5.481-1.931c3.306-3.425-0.719-9.618,1.978-13.509
			c0.729-1.051,1.861-1.77,2.764-2.687c3.656-3.713,2.201-10.798-2.646-12.883c-2.586-1.113-6.246-1.4-9.053-1.578
			C294.124,78.957,293.407,79.49,290.61,79.809z"/>
		<path style="opacity:0.08;fill:#585F78;" d="M358.983,180.013c0.446-0.946,1.331-1.614,2.042-2.394
			c3.792-4.163,2.175-10.579,0.348-15.835c-1.465-4.213-3.367-8.897-7.616-10.605c-7.611-3.06-17.394,5.583-23.8-0.464
			c-1.954-1.844-2.957-4.435-3.005-7.073l-0.282-15.551c-0.135-7.448,3.59-14.481,9.952-18.693c2.795-1.851,4.952-4.24,5.653-7.44
			c0.172-0.787,0.231-1.652-0.178-2.352c-0.542-0.926-1.706-1.28-2.714-1.709c-3.929-1.671-6.638-5.72-6.601-9.865
			c0.037-4.145,2.819-8.148,6.777-9.753c3.722-1.509,8.415-1.138,11.252-3.91c2.968-2.9,2.314-7.612,3.202-11.598
			c2.109-9.473,13.149-14.49,23.141-15.369c7.705-0.678,15.558,0.256,22.862,2.719c4.109,1.386,8.343,3.281,12.624,2.526
			c6.128-1.081,9.881-7.071,15.339-9.97c4.125-2.191,9.004-2.5,13.704-2.762c4.001-0.223,8.344-0.358,11.628,1.861
			c1.711,1.156,2.945,2.839,4.349,4.331c7.367,7.828,20.369,10.053,30.073,5.146c2.431-1.229,4.803-2.89,7.546-2.974
			c4.195-0.127,7.417,3.379,11.173,5.185c7.684,3.695,17.242,0.073,25.366,2.747c4.841,1.593,8.69,5.281,12.349,8.526
			c2.106,1.868,2.754,4.932,1.295,7.307c-2.801,4.562-9.962,0.85-14.664,3.04c-3.16,1.472-4.358,5.264-4.412,8.652
			c-0.054,3.388,0.685,6.824-0.052,10.137c-1.26,5.666-7.281,9.951-13.258,9.434c-1.559-0.135-3.509-0.391-4.34,0.89
			c-0.513,0.79-0.305,1.814-0.043,2.711c1.022,3.499,2.61,6.843,3.351,10.407c0.742,3.564,0.516,7.552-1.783,10.431
			c-0.894,1.12-2.168,1.972-3.557,2.456c-3.308,1.151-5.781,3.837-6.225,7.206c-0.203,1.542-0.608,3.059-1.334,4.526
			c-0.836,1.691-2.121,3.175-3.806,4.104c-6.071,3.346-12.525-1.83-15.322-7.413c-2.553-5.096-3.606-11.005-7.404-15.317
			c-3.399-3.86-8.857-5.932-14.069-5.339c-0.766,0.087-1.575,0.251-2.126,0.772c-0.901,0.852-0.764,2.264-0.562,3.466l0.033,0.198
			c0.752,4.46-3.473,8.284-8,7.142c-4.677-1.18-8.778-3.375-10.543-7.567c-0.748-1.775-0.964-3.751-1.92-5.43
			c-1.839-3.229-6.649-4.881-9.888-1.773c-0.776,0.744-1.331,1.707-1.5,2.75c-0.763,4.692,5.663,7.386,3.452,12.602
			c-0.871,2.055-2.806,3.54-5.046,4.035c-4.514,0.998-8.767-1.452-11.859-4.527c-0.231-0.229-0.457-0.462-0.679-0.699
			c-2.347-2.494-6.561,0.069-5.254,3.194c1.277,3.053,3.229,5.841,5.744,8.067c1.406,1.245,3.027,2.389,3.792,4.077
			c1.98,4.368-2.878,8.811-7.511,10.461c-4.634,1.649-10.198,2.647-12.627,6.799c-2.443,4.175-0.42,9.322,0.8,13.971
			c0.675,2.573,1.086,6.094-0.123,8.593c-2.151,4.445-4.889,2.745-8.499,4.945c-5.413,3.298-2.664,9.962-7.618,13.67
			c-4.34,3.249-8.976,2.286-11.553-1.979c-1.909-3.16-1.594-7.637-3.368-11.008C362.243,186.967,357.331,183.516,358.983,180.013z"
			/>
		<g>
			<g>
				<g>
					<path style="fill:none;stroke:#E0C5CA;stroke-width:0.8179;stroke-linecap:round;stroke-linejoin:round;" d="M241.579,86.288
						c0,0,0.407-0.094,1.194-0.261"/>
					
						<path style="fill:none;stroke:#E0C5CA;stroke-width:0.8179;stroke-linecap:round;stroke-linejoin:round;stroke-dasharray:2.4696,2.4696;" d="
						M245.188,85.536c21.149-4.143,131.247-22.107,224.179,31.54"/>
					<path style="fill:none;stroke:#E0C5CA;stroke-width:0.8179;stroke-linecap:round;stroke-linejoin:round;" d="M470.445,117.701
						c0.353,0.206,0.706,0.413,1.058,0.622"/>
				</g>
			</g>
			
				<path style="fill:none;stroke:#E0C5CA;stroke-width:0.8179;stroke-linecap:round;stroke-linejoin:round;stroke-miterlimit:10;stroke-dasharray:2.4536;" d="
				M305.59,208.514c0,0,29.412-64.648,72.528-79.248"/>
			
				<path style="fill:none;stroke:#E0C5CA;stroke-width:0.8179;stroke-linecap:round;stroke-linejoin:round;stroke-miterlimit:10;stroke-dasharray:2.4536;" d="
				M448.806,68.373c0,0-107.283,24.815-146.592,89.79"/>
			
				<path style="fill:none;stroke:#E0C5CA;stroke-width:0.8179;stroke-linecap:round;stroke-linejoin:round;stroke-miterlimit:10;stroke-dasharray:2.4536;" d="
				M378.119,130.854c0,0-69.804-43.834-138.128-42.978"/>
			<g>
				<g>
					<circle style="opacity:0.51;fill:#848EB3;" cx="305.59" cy="206.927" r="3.376"/>
					<circle style="fill:#FFFFFF;" cx="305.59" cy="206.927" r="1.588"/>
				</g>
				<g>
					<path style="opacity:0.51;fill:#848EB3;" d="M476.467,118.323c0,1.865-1.512,3.376-3.376,3.376
						c-1.865,0-3.376-1.512-3.376-3.376c0-1.865,1.512-3.376,3.376-3.376C474.955,114.947,476.467,116.458,476.467,118.323z"/>
					<path style="fill:#FFFFFF;" d="M474.678,118.323c0,0.877-0.711,1.588-1.588,1.588c-0.877,0-1.588-0.711-1.588-1.588
						c0-0.877,0.711-1.588,1.588-1.588C473.967,116.735,474.678,117.446,474.678,118.323z"/>
				</g>
				<g>
					<path style="opacity:0.51;fill:#848EB3;" d="M243.367,86.288c0,1.865-1.512,3.376-3.376,3.376
						c-1.865,0-3.376-1.512-3.376-3.376s1.512-3.376,3.376-3.376C241.856,82.912,243.367,84.424,243.367,86.288z"/>
					<circle style="fill:#FFFFFF;" cx="239.991" cy="86.288" r="1.588"/>
				</g>
				<g>
					<circle style="opacity:0.51;fill:#848EB3;" cx="378.119" cy="130.854" r="3.376"/>
					<path style="fill:#FFFFFF;" d="M379.706,130.854c0,0.877-0.711,1.588-1.588,1.588c-0.877,0-1.588-0.711-1.588-1.588
						c0-0.877,0.711-1.588,1.588-1.588C378.996,129.266,379.706,129.977,379.706,130.854z"/>
				</g>
				<g>
					<path style="opacity:0.51;fill:#848EB3;" d="M452.182,66.785c0,1.865-1.512,3.376-3.376,3.376
						c-1.865,0-3.376-1.512-3.376-3.376c0-1.865,1.512-3.376,3.376-3.376C450.671,63.409,452.182,64.92,452.182,66.785z"/>
					<path style="fill:#FFFFFF;" d="M450.394,66.785c0,0.877-0.711,1.588-1.588,1.588c-0.877,0-1.588-0.711-1.588-1.588
						c0-0.877,0.711-1.588,1.588-1.588C449.683,65.197,450.394,65.908,450.394,66.785z"/>
				</g>
				<g>
					<circle style="opacity:0.51;fill:#848EB3;" cx="302.214" cy="156.575" r="3.376"/>
					<circle style="fill:#FFFFFF;" cx="302.214" cy="156.575" r="1.588"/>
				</g>
			</g>
		</g>
	</g>
	<g>
		<g>
			<g>
				<path style="fill:#BD112E;" d="M487.473,186.367c0-4.189,3.427-7.617,7.616-7.617h78.602c4.189,0,7.616,3.427,7.616,7.617
					v20.107c0,4.189-3.427,7.616-7.616,7.616h-65.298c0,0-4.671,5.687-0.406,16.452c0.208,0.525,0.954,2.141,0.243,2.599
					c-0.644,0.415-1.832-0.498-2.315-0.828c-1.436-0.98-2.729-2.178-3.973-3.387c-1.658-1.613-3.227-3.318-4.728-5.078
					c-1.616-1.895-3.155-3.859-4.582-5.901c-1.305-1.868-2.533-3.807-3.534-5.857c-0.82-1.678-1.42-3.18-1.549-5.058
					c-0.059-0.868-0.076-2.043-0.076-2.915c0-2.082,0-4.165,0-6.247c0-2.303,0-4.606,0-6.909c0-1.434,0-2.868,0-4.302
					C487.473,186.563,487.473,186.465,487.473,186.367z"/>
				<g>
					
						<text transform="matrix(1 0 0 1 500.9388 204.2243)" style="fill:#FFFFFF; font-family:'LeagueSpartan-Bold'; font-size:15.8638px;">Zdravo!</text>
				</g>
			</g>
			<g>
				<path style="fill:#780C1D;" d="M583.101,357.173c0,0,10.628,8.192,48.073,13.949c40.324,6.199,6.114-35.563,6.114-35.563
					s-41.631-13.932-51.75-14.258C575.419,320.973,583.101,357.173,583.101,357.173z"/>
				<g>
					<g>
						<path style="fill:#A27145;" d="M579.968,240.218c-14.138-31.712-60.108-2.277-58.795,13.465
							c1.313,15.742,7.231,31.575,8.307,38.777c0.836,5.59-5.688,24.25-8.65,32.326c2.414,3.531,4.206,7.489,5.209,11.588
							c0.127,0.518,0.271,1.031,0.415,1.544c2.169,0.934,3.995,1.303,3.995,1.303c24.269,5.901,26.641-8.032,26.641-8.032
							l3.01-20.446c0,0,18.359,5.451,26.085-8.35C593.911,288.59,579.968,240.218,579.968,240.218z"/>
						<g>
							<path style="fill:#D1886E;" d="M560.101,310.741c0,0,0.37,0.108,1.01,0.254L560.101,310.741z"/>
							<path style="fill:#966940;" d="M545.674,304.793c0,0-8.143,24.454,9.286,30.61c1.78-2.184,2.901-4.135,2.901-4.135
								l2.24-20.527L545.674,304.793z"/>
						</g>
						<path style="fill:none;stroke:#69492C;stroke-width:1.714;stroke-linecap:round;stroke-miterlimit:10;" d="M574.121,263.472
							c0,0,5.221,10.916,6.8,12.806c1.579,1.891,3.652,1.559,3.478,5.18c-0.174,3.62-6.586,6.265-10.468,3.701"/>
						<path style="fill:none;stroke:#101115;stroke-width:3.428;stroke-linecap:round;stroke-miterlimit:10;" d="M564.69,260.933
							c0,0-5.055,0.528-7.513,3.022c-2.459,2.493-2.321,5.9-2.321,5.9"/>
						<path style="fill:none;stroke:#101115;stroke-width:3.428;stroke-linecap:round;stroke-miterlimit:10;" d="M585.32,256.592
							c0,0-1.275-1.384-4.776-1.437c-3.501-0.054-5.314,2.386-5.314,2.386"/>
						<path style="fill:#101115;" d="M566.126,275.12L566.126,275.12c-1.31,0.3-2.628-0.527-2.928-1.837l-0.765-3.338
							c-0.3-1.31,0.526-2.628,1.837-2.928l0,0c1.311-0.3,2.628,0.527,2.928,1.837l0.765,3.338
							C568.263,273.502,567.436,274.82,566.126,275.12z"/>
						<path style="fill:#101115;" d="M583.538,269.843L583.538,269.843c-1.31,0.3-2.628-0.526-2.928-1.837l-0.765-3.338
							c-0.3-1.31,0.526-2.628,1.837-2.928l0,0c1.31-0.3,2.628,0.527,2.928,1.837l0.765,3.338
							C585.675,268.226,584.849,269.543,583.538,269.843z"/>
						<path style="fill:#E0968B;" d="M563.174,280.445c0.454,1.983-2.158,4.272-5.833,5.114c-3.676,0.842-7.024-0.083-7.477-2.065
							c-0.454-1.982,2.158-4.272,5.833-5.114S562.72,278.463,563.174,280.445z"/>
						<path style="fill:#E0968B;" d="M590.534,271.874c0.417,1.822-0.956,3.691-3.068,4.174c-2.111,0.484-4.161-0.601-4.579-2.423
							c-0.417-1.822,0.956-3.691,3.068-4.174C588.068,268.968,590.117,270.052,590.534,271.874z"/>
						<path style="fill:none;stroke:#69492C;stroke-width:1.714;stroke-linecap:round;stroke-miterlimit:10;" d="M578.818,292.953
							c0,0-8.935,3.638-15.211-2.978"/>
						<path style="fill:#101115;" d="M537.594,297.655c0,0,2.427-32.776-2.782-39.433c0,0,13.221-11.39,46.466-10.975
							c1.091,0.014,2.036-0.751,2.218-1.827c0.996-5.879,3.351-23.725-4.494-25.037c-9.404-1.572-58.773,16.35-63.377,25.486
							c-4.604,9.137,13.331,52.574,13.331,52.574L537.594,297.655z"/>
						<g>
							<path style="fill:#A27145;" d="M542.709,270.666c0,0-12.4-0.434-11.407,7.226c1.492,11.517,11.723,6.782,13.111,4.845"/>
							<path style="fill:#D9975C;" d="M534.168,278.506c0,0-1.082-4.387,3.495-4.89c0,0,3.087,0.918,2.644,3.153
								c0,0-3.874,0.597-2.71,3.595c0,0,0.989,1.951,3.533,0.48c0,0,0.138,1.371-2.019,1.961
								C536.954,283.395,535.149,281.731,534.168,278.506z"/>
							<path style="fill:none;stroke:#69492C;stroke-width:1.714;stroke-linecap:round;stroke-miterlimit:10;" d="M534.401,276.833
								c0,0-0.3-2.142,2.36-3.038c2.66-0.896,3.268,1.763,3.546,2.975c0,0-4.133,1.133-2.71,3.595
								c1.423,2.462,3.536,0.011,3.536,0.011"/>
						</g>
					</g>
					<path style="fill:#870E21;" d="M582.766,390.74c0.33-8.153,1.099-16.344,1.207-24.499c0.02-1.523,1.901-9.503,3.113-10.231
						c0,0,16.273-30.388,1.431-34.038c-14.842-3.65-29.676-2.678-29.676-2.678c-0.151,10.857-8.241,22.464-19.896,20.354
						c-19.287-3.491-16.173-21.103-16.173-21.103s-22.048,5.099-40.067,17.013l14.135,34.732c0,0-0.701,5.503,2.754,21.206
						c2.538,11.536-2.196,45.636-4.888,62.927h90.831C583.541,433.665,581.992,409.834,582.766,390.74z"/>
					<path style="fill:#780C1D;" d="M521.144,446.843c-20.386-26.061-21.597-64.699-21.597-64.699
						c-0.404-4.608-0.556-14.509-0.556-14.509l-16.285-32.076c-7.194,5.353-9.29,67.462-6.076,77.013
						c2.986,8.874,22.35,34.741,28.748,41.853h20.712C524.417,452.401,523.274,449.566,521.144,446.843z"/>
				</g>
			</g>
		</g>
		<g>
			<g>
				<g>
					<g>
						<path style="fill:#AB0F2A;" d="M112.743,317.065c0,0,9.051-2.097,24.884,0c0,0,4.573,3.771,3.365,7.117
							c-1.208,3.346-30.116,0.465-30.116,0.465S108.183,319.616,112.743,317.065z"/>
						<path style="fill:#F5B381;" d="M115.377,309.835c0,0-0.18,14.862-4.109,16.456c-3.929,1.594-16.891,2.497-16.756,5.686
							c0.135,3.189,32.105,19.133,32.105,19.133l28.5-19.035c0,0-5.135-5.753-14.084-6.551c-7.033-0.627-4.711-15.378-4.711-15.378"
							/>
						<path style="opacity:0.46;fill:#ED9563;" d="M136.191,334.882c-9.002,0-16.3-8.476-16.3-18.932
							c0-1.302,0.113-2.574,0.329-3.803c-0.068-0.016-0.134-0.036-0.201-0.051c-0.459-0.108-0.917-0.225-1.371-0.351
							c-0.257-0.071-0.512-0.151-0.768-0.228c-0.274-0.082-0.548-0.165-0.82-0.254c-0.136-0.044-0.274-0.084-0.409-0.13
							l-1.274-0.723c0,0-0.18,14.286-4.109,15.88c-3.929,1.594-16.891,2.497-16.756,5.686c0.135,3.189,32.105,19.133,32.105,19.133
							l28.5-19.035c0,0-2.185-2.431-6.168-4.352C145.965,332.083,141.361,334.882,136.191,334.882z"/>
					</g>
					<g>
						<path style="fill:#F5B381;" d="M156.027,286.004c-2.319,11.118-8.416,22.024-19.66,25.717
							c-9.027,2.965-19.896,0.652-27.747-4.461c-6.833-4.45-10.368-11.632-11.87-19.459c-3.107-16.194-0.922-33.301,5.658-48.39
							c3.47-7.957,15.307-12.066,23.302-12.634c8.905-0.633,17.879,3.758,23.302,10.85c4.476,5.853,5.983,12.437,6.935,19.574
							c1.072,8.036,1.783,16.198,0.818,24.283C156.587,282.983,156.342,284.495,156.027,286.004z"/>
						<path style="opacity:0.46;fill:#ED9563;" d="M100.654,287.801c-3.107-16.194-0.922-33.301,5.658-48.39
							c3.431-7.868,15.04-11.971,23.029-12.611c-1.206-0.094-2.418-0.109-3.63-0.023c-7.995,0.569-19.832,4.677-23.302,12.634
							c-6.58,15.088-8.765,32.196-5.658,48.39c1.502,7.827,5.036,15.009,11.87,19.459c5.988,3.899,13.73,6.161,21.072,5.704
							c-6.111-0.387-12.236-2.492-17.169-5.704C105.69,302.81,102.156,295.628,100.654,287.801z"/>
						<path style="fill:#C2552B;" d="M94.942,271.91c0,0-2.405-21.179-4.154-23.463s-1.749-10.59,2.077-13.081
							c0,0,0.984-9.967,11.478-4.153c10.495,5.814-3.935,13.704-3.935,13.704S99.752,269.419,94.942,271.91z"/>
						<path style="fill:#C2552B;" d="M158.894,279.018c0,0,2.278-20.063,3.935-22.227c1.657-2.164,1.657-10.031-1.968-12.392
							c0,0-0.932-9.441-10.874-3.934c-9.942,5.507,3.728,12.982,3.728,12.982S154.338,276.658,158.894,279.018z"/>
						<path style="fill:#CF5B2E;" d="M97.358,239.183c0,0,10.321-23.932,45.38-14.749c0,0,16.306,5.586,20.609-3.161
							c0,0,2.26,33.052-22.666,35.887C113.576,260.243,94.023,252.703,97.358,239.183z"/>
						<g>
							<g>
								<path style="fill:#F5B381;" d="M155.178,272.178c0,0,4.616-9.14,8.149-4.74c3.533,4.401-1.758,10.778-8.02,15.189
									C149.046,287.039,155.178,272.178,155.178,272.178z"/>
								<g>
									<path style="fill:#D1886E;" d="M161.533,272.419c0,0-0.255-2.298-2.735-1.692c0,0-1.439,1.01-0.79,1.997
										c0,0,2.132-0.431,2.084,1.217c0,0-0.152,1.116-1.752,0.883c0,0,0.184,0.681,1.418,0.564
										C160.992,275.271,161.623,274.142,161.533,272.419z"/>
									<path style="fill:none;stroke:#9C6754;stroke-width:0.2169;stroke-linecap:round;stroke-miterlimit:10;" d="
										M161.308,271.954c0,0-0.247-1.094-1.821-1.029c-1.574,0.065-1.393,1.467-1.311,2.105c0,0,2.397-0.225,2.111,1.233
										c-0.286,1.459-1.865,0.668-1.865,0.668"/>
								</g>
							</g>
							<g>
								<path style="fill:#F5B381;" d="M98.84,272.047c0,0-4.843-9.588-8.549-4.972c-3.706,4.616,1.844,11.306,8.412,15.933
									C105.273,287.636,98.84,272.047,98.84,272.047z"/>
								<g>
									<path style="fill:#D1886E;" d="M92.174,272.3c0,0,0.267-2.41,2.869-1.774c0,0,1.509,1.059,0.829,2.094
										c0,0-2.236-0.453-2.186,1.277c0,0,0.159,1.171,1.838,0.926c0,0-0.193,0.715-1.488,0.592
										C92.742,275.292,92.08,274.108,92.174,272.3z"/>
									<path style="fill:none;stroke:#9C6754;stroke-width:0.2275;stroke-linecap:round;stroke-miterlimit:10;" d="M92.41,271.813
										c0,0,0.259-1.147,1.91-1.079c1.651,0.068,1.462,1.538,1.375,2.208c0,0-2.515-0.237-2.214,1.294s1.957,0.701,1.957,0.701"/>
								</g>
							</g>
							<g>
								<path style="fill:none;stroke:#D1886E;stroke-width:1.5951;stroke-linecap:round;stroke-miterlimit:10;" d="
									M127.556,272.108c0,0,2.599,9.257,3.577,10.952c0.978,1.695,2.646,1.718,2.016,4.529c-0.629,2.81-6.01,4.006-8.699,1.47"/>
								<path style="fill:none;stroke:#CF5B2E;stroke-width:1.7351;stroke-linecap:round;stroke-miterlimit:10;" d="
									M119.892,267.952c0,0-4.99-2.411-8.701-1.509c-3.71,0.902-5.538,4.139-5.538,4.139"/>
								<path style="fill:#373646;" d="M113.744,281.277L113.744,281.277c1.465,0.054,2.708-1.1,2.762-2.565l0.138-3.732
									c0.054-1.465-1.1-2.708-2.565-2.762l0,0c-1.465-0.054-2.708,1.1-2.762,2.565l-0.138,3.732
									C111.125,279.98,112.279,281.223,113.744,281.277z"/>
								<path style="fill:none;stroke:#CF5B2E;stroke-width:1.7351;stroke-linecap:round;stroke-miterlimit:10;" d="
									M134.584,268.858c0,0,4.99-2.411,8.701-1.509c3.71,0.901,5.538,4.139,5.538,4.139"/>
								<path style="fill:#373646;" d="M140.158,281.273L140.158,281.273c-1.464-0.08-2.595-1.344-2.515-2.807l0.205-3.729
									c0.08-1.464,1.344-2.595,2.807-2.515l0,0c1.464,0.08,2.596,1.344,2.515,2.807l-0.205,3.729
									C142.885,280.222,141.622,281.353,140.158,281.273z"/>
								<path style="fill:#E08679;" d="M138.92,286.379c-0.011,2.218,3.314,4.031,7.426,4.051c4.112,0.02,7.454-1.762,7.465-3.98
									c0.011-2.218-3.314-4.031-7.426-4.051C142.273,282.379,138.931,284.161,138.92,286.379z"/>
								<path style="fill:#E08679;" d="M117.723,286.379c0.011,2.218-3.314,4.031-7.426,4.051c-4.112,0.02-7.454-1.762-7.465-3.98
									c-0.011-2.218,3.314-4.031,7.426-4.051C114.371,282.379,117.713,284.161,117.723,286.379z"/>
								<path style="fill:none;stroke:#D1886E;stroke-width:1.7351;stroke-linecap:round;stroke-miterlimit:10;" d="
									M117.905,297.359c0,0,8.015,6.814,16.77,2.1"/>
							</g>
						</g>
					</g>
				</g>
				<g>
					<path style="fill:#EDB790;" d="M37.666,360.055l-0.817-7.492c0,0-7.592-4.732-11.183-12.175
						c-3.591-7.443-7.582-12.767-5.336-14.071c2.917-1.693,6.428,9.024,7.498,8.402c1.069-0.622-6.576-14.825-3.713-16.527
						c2.864-1.702,6.719,11.651,8.148,12c1.428,0.35-6.862-15.426-3.059-16.472c3.803-1.046,6.63,13.303,8.031,13.403
						c1.401,0.1-3.138-13.723-0.791-14.212c2.347-0.489,5.6,9.644,6.104,14.265s1.248,6.814,2.996,6.623
						c1.748-0.19,0.337-8.503,3.72-7.608c3.383,0.895,3.658,15.017,1.485,19.423c-2.173,4.407-0.239,8.239-0.239,8.239"/>
					<path style="fill:#CB1231;" d="M75.805,426.51c9.664-6.333,14.65-54.523,14.65-54.523l-0.225,82.43h74.734
						c-0.404-6.96-0.555-16.99-0.567-27.733c2.342,5.169,0.785,12.154,0.785,12.154c10.591-2.824,27.173-12.025,31.641-15.646
						c0.443-0.359,0.812-0.787,1.105-1.259c0.004-0.005,0.009-0.01,0.013-0.016c4.282-5.9,0.006-24.884,0.006-24.884
						s-11.067-52.906-20.862-60.033c-9.794-7.126-35.605-15.247-35.605-15.247l-15.304,13.01l-19.75-12.356
						c0,0-7.346,5.43-18.539,11.538c-11.193,6.108-19.927,21.094-24.486,43.437C58.52,401.312,58.813,437.645,75.805,426.51z
						 M164.415,418.121c0.12-24.093,0.682-44.837,0.682-44.837c0.874,6.406,9.271,26.844,12.025,34.781
						C171.71,411.761,166.938,415.494,164.415,418.121z"/>
					<path style="fill:#BD112E;" d="M51.557,353.067c2.491,4.323,4.877,8.709,7.229,13.109c4.828,9.034,9.47,18.184,13.609,27.556
						c3.345,7.574,7.336,15.989,7.893,24.38c0.341,5.137-3.399,9.225-7.026,12.386c-0.574,0.5-1.178,1.004-1.908,1.219
						c-0.928,0.274-1.925,0.042-2.851-0.24c-8.299-2.52-15.424-9.046-17.795-17.496c-3.903-13.914-14.762-58.369-14.762-58.369
						L51.557,353.067z"/>
					<path style="fill:#BD112E;" d="M137.627,317.065c0,0,7.635,3.054,7.466,9.502c-0.17,6.448-11.283,12.98-11.283,12.98
						l-6.957-7.551C126.853,331.997,141.954,324.107,137.627,317.065z"/>
					<path style="fill:#BD112E;" d="M112.743,317.065c0,0-7.635,3.054-7.466,9.502c0.17,6.448,11.283,12.98,11.283,12.98
						l6.957-7.551C123.517,331.997,108.416,324.107,112.743,317.065z"/>
					
						<rect x="124.748" y="335.23" transform="matrix(-1 -1.224647e-16 1.224647e-16 -1 252.9625 789.6474)" style="fill:#BD112E;" width="3.467" height="119.187"/>
					<circle style="fill:#870E21;" cx="126.481" cy="343.934" r="0.989"/>
					<circle style="fill:#870E21;" cx="126.481" cy="362.757" r="0.989"/>
					<circle style="fill:#870E21;" cx="126.481" cy="381.766" r="0.989"/>
					<circle style="fill:#870E21;" cx="126.481" cy="400.774" r="0.989"/>
					<circle style="fill:#870E21;" cx="126.481" cy="419.783" r="0.989"/>
					<circle style="fill:#870E21;" cx="126.481" cy="438.187" r="0.989"/>
					<g>
						<g>
							<path style="fill:#870E21;" d="M127.33,332.931c0,0,6.938-7.985,8.452-5.191c1.513,2.794,2.667,13.614,1.04,13.441
								S126.666,337.634,127.33,332.931z"/>
							<path style="fill:#780C1D;" d="M130.537,332.075c-0.215,0.242-0.429,0.484-0.644,0.727c-0.051,0.058-0.106,0.124-0.103,0.202
								c0.005,0.141,0.18,0.199,0.319,0.223c0.56,0.098,1.107,0.262,1.635,0.472c-0.464,0.107-0.949,0.119-1.418,0.036
								c-0.087-0.015-0.197-0.025-0.243,0.05c-0.021,0.034-0.022,0.077-0.019,0.117c0.038,0.478,0.508,0.847,0.517,1.327
								c-0.249-0.028-0.449-0.209-0.649-0.36c-0.215-0.163-0.451-0.3-0.699-0.407c-0.241-0.104-0.495-0.18-0.722-0.313
								c-0.542-0.318-0.688-0.992-0.015-1.201c0.328-0.102,0.632-0.298,0.945-0.439C129.8,332.349,130.166,332.204,130.537,332.075z
								"/>
						</g>
						<g>
							<path style="fill:#870E21;" d="M126.375,332.931c0,0-6.938-7.985-8.452-5.191c-1.513,2.794-2.667,13.614-1.04,13.441
								C118.511,341.009,127.039,337.634,126.375,332.931z"/>
							<path style="fill:#780C1D;" d="M123.168,332.075c0.215,0.242,0.429,0.484,0.644,0.727c0.051,0.058,0.106,0.124,0.103,0.202
								c-0.005,0.141-0.18,0.199-0.319,0.223c-0.56,0.098-1.107,0.262-1.635,0.472c0.464,0.107,0.949,0.119,1.418,0.036
								c0.087-0.015,0.197-0.025,0.243,0.05c0.021,0.034,0.022,0.077,0.019,0.117c-0.038,0.478-0.508,0.847-0.517,1.327
								c0.249-0.028,0.449-0.209,0.649-0.36c0.215-0.163,0.451-0.3,0.699-0.407c0.241-0.104,0.495-0.18,0.722-0.313
								c0.542-0.318,0.688-0.992,0.015-1.201c-0.328-0.102-0.632-0.298-0.945-0.439C123.905,332.349,123.54,332.204,123.168,332.075
								z"/>
						</g>
						<path style="fill:#870E21;" d="M125.451,334.166c0,1.275,0.825,2.309,1.842,2.309c1.017,0,1.842-1.034,1.842-2.309
							c0-1.275-0.825-2.309-1.842-2.309C126.276,331.857,125.451,332.89,125.451,334.166z"/>
						<path style="fill:#9E1027;" d="M126.961,333.492c0,0.541,0.35,0.98,0.782,0.98s0.782-0.439,0.782-0.98
							c0-0.542-0.35-0.98-0.782-0.98S126.961,332.95,126.961,333.492z"/>
					</g>
					<polygon style="fill:#1F3C42;" points="172.485,374.925 168.389,373.284 137.227,384.426 140.66,386.426 					"/>
					<g>
						<polygon style="fill:#284D55;" points="177.96,412.311 172.485,374.925 140.66,386.426 149.566,436.63 178.802,419.236 						
							"/>
						<polygon style="fill:#FFFFFF;" points="166.344,384.426 167.866,394.272 152.806,400.265 150.891,390.073 						"/>
						<polygon style="fill:#1F3C42;" points="137.227,384.426 145.609,433.109 148.808,432.352 140.66,386.426 						"/>
					</g>
					<path style="fill:#EDB790;" d="M169.504,432.804c0,0-29.064,19.957-29.154,2.915c-0.022-4.165,9.888,5.063,9.888,5.063
						s-13.639-0.033-9.492-13.836c0.643-2.139,7.127,9.884,7.127,9.884s-11.567-3.921-5.362-14.849
						c1.888-3.326,0.718,9.581,4.636,11.167c0,0-7.93-2.255-4.37-10.482c1.04-2.404,1.663,6.199,4.294,5.269
						c1.509-0.533,3.078-1.565,4.142-2.349c0.514-0.379,0.393-1.422-0.185-1.598c-1.267-0.383-3.11-0.697-4.579,0.049
						c-2.495,1.266-5.223-1.037-2.727-2.303c2.495-1.266,5.36-2.883,8.543-2.297c3.183,0.587,5.941,3.91,8.345,3.839
						c2.404-0.071,7.718-4.483,7.718-4.483"/>
					<path style="fill:#BD112E;" d="M162.01,422.293c1.5-2.634,8.115-9.255,12.295-12.259c0.913-0.653,1.854-1.312,2.817-1.969
						c7.393-5.102,15.164-7.556,21.288-8.728c0.977,5.234,2.896,17.945-0.469,22.581c-0.004,0.005-0.009,0.01-0.013,0.016
						c-0.293,0.472-0.662,0.9-1.105,1.259c-4.468,3.621-20.662,13.16-31.253,15.984c0,0,0.876-5.433-0.498-10.564
						C164.186,422.064,162.01,422.293,162.01,422.293z"/>
					<polygon style="fill:#870E21;" points="52.199,348.721 53.872,353.648 34.167,357.18 32.772,351.789 					"/>
					<path style="fill:#870E21;" d="M162.672,440.465c0,0,1.789,0.023,3.811-0.07c0,0,3.207-14.218-3.811-19.623
						c0,0-1.789,0.405-2.533,1.706C160.139,422.478,164.764,425.5,162.672,440.465z"/>
				</g>
			</g>
			<g>
				<path style="fill:#585F78;" d="M44.345,189.847c0-4.42,3.616-8.036,8.036-8.036h82.929c4.42,0,8.036,3.616,8.036,8.036v21.214
					c0,4.42-3.616,8.036-8.036,8.036H66.416c0,0-4.929,6-0.429,17.357c0.22,0.554,1.007,2.259,0.257,2.742
					c-0.68,0.438-1.933-0.525-2.443-0.873c-1.515-1.034-2.879-2.298-4.191-3.573c-1.75-1.701-3.405-3.501-4.988-5.357
					c-1.705-1.999-3.329-4.072-4.834-6.226c-1.377-1.971-2.672-4.016-3.729-6.179c-0.865-1.77-1.498-3.355-1.634-5.337
					c-0.063-0.916-0.08-2.155-0.08-3.075c0-2.197,0-4.394,0-6.591c0-2.43,0-4.859,0-7.289c0-1.513,0-3.026,0-4.539
					C44.345,190.054,44.345,189.951,44.345,189.847z"/>
				<g>
					
						<text transform="matrix(1 0 0 1 63.6078 209.5234)" style="fill:#FFFFFF; font-family:'LeagueSpartan-Bold'; font-size:20.8896px;">HELLO</text>
				</g>
			</g>
		</g>
		<g>
			<g>
				<g>
					<path style="fill:#864A32;" d="M236.791,333.065c-2.262,4.869-4.541,9.791-5.658,15.053
						c-1.117,5.262-0.983,10.972,1.432,15.765c1.48,2.937,20.464,6.239,21.091,9.476c1.585,8.18-13.427,14.591-12.841,22.906
						c0.289,4.101-8.271,7.728-9.459,11.659c-1.163,3.849-6.049,5.602-9.79,4.259c-3.741-1.342-6.298-4.972-7.555-8.79
						c-1.257-3.818-1.443-7.897-1.914-11.893s-1.293-8.099-3.6-11.374c-2.871-4.075-7.725-6.419-10.389-10.637
						c-2.848-4.509-2.663-10.36-1.36-15.549s3.607-10.087,4.752-15.314c3.412-15.576-3.617-32.981,3.334-47.295
						c1.91-3.933,4.809-7.408,5.992-11.625c1.813-6.466-0.711-13.585,1.164-20.034c1.986-6.828,8.385-11.281,14.677-14.436
						c6.444-3.232,13.252-5.716,20.25-7.389c13.929-3.329,26.799,11.95,33.592,24.726c0.71,1.336,1.362,2.707,1.879,4.13
						c0.717,1.971,1.173,4.029,1.627,6.079c0.844,3.811,1.691,7.654,1.769,11.56c0.064,3.234-0.401,6.45-0.726,9.668
						c-0.841,8.33-0.742,16.734-1.548,25.067c-0.806,8.333-2.586,16.75-6.844,23.924c-0.646,1.089-1.373,2.172-2.409,2.888
						c-0.983,0.68-2.169,0.978-3.331,1.241c-2.788,0.633-5.603,1.145-8.435,1.535c-3.239,0.446-6.618,0.719-9.707-0.364
						c-2.273-0.797-4.242-2.277-6.17-3.736C242.39,341.372,239.011,337.913,236.791,333.065z"/>
					<g>
						<path style="fill:#EEC198;" d="M264.556,313.773c0,0-4.911,18.549,18.66,14.316l11.206,34.842l-69.917-7.51l-5.355-16.395
							c0,0,10.49-5.682,18.909-5.766c8.419-0.085,0.656-21.545,0.656-21.545L264.556,313.773z"/>
						<path style="fill:#ECB685;" d="M275.65,348.914c-13.498,1.263-26.348-13.312-28.701-32.554
							c-0.166-1.354-0.261-2.69-0.316-4.014l-7.905-1.836c0,0,0.498,17.55-7.052,20.793c-8.314,3.572-13.975,6.948-13.975,6.948
							l6.803,17.17l68.045,13.4l-5.667-25.307C283.729,346.576,279.914,348.514,275.65,348.914z"/>
					</g>
					<g>
						<g>
							<path style="fill:#EEC098;" d="M281.439,275.426c2.469,21.893-6.524,38.692-23.953,40.471
								c-17.429,1.778-34.577-14.102-36.876-34.491c-2.299-20.389,9.965-38.36,27.394-40.139
								C265.433,239.489,279.139,255.036,281.439,275.426z"/>
							<path style="fill:#ECB685;" d="M224.77,279.584c-1.821-16.142,5.506-30.733,17.277-37.009
								c-14.168,4.78-23.464,20.858-21.437,38.831c2.3,20.39,19.447,36.27,36.876,34.491c3.706-0.378,7.099-1.471,10.157-3.11
								c-1.9,0.632-3.899,1.074-5.997,1.288C244.217,315.853,227.07,299.973,224.77,279.584z"/>
						</g>
						<path style="fill:#864A32;" d="M230.286,331.219 M215.205,308.038c0,0-3.051,1.259,9.115,1.33
							c12.166,0.071,9.727-47.745,9.727-47.745h14.134v-9.413l3.797,10.533h26.156h0.251c0,0,0.328,0.589,0.746,2.719
							c1.047,3.143,1.796,6.486,2.19,9.977c0.656,5.81,0.471,11.258-0.479,16.17c0.083,8.833-0.211,20.316-1.152,35.179
							c0.952-0.202,1.182,0.429,2.25,0.096l0.422-0.616c5.239-24.756,12.609-61.738-2.222-79.48
							c-21.357-25.549-47.862-17.411-54.032-12.033c-3.035,2.646-6.921,13.328-7.72,29.679c-1.071,2.943-1.768,6.062-2.016,9.298
							c0.087,3.696-0.101,7.606,0.329,11.712c0.696,3.288,1.949,6.424,3.601,9.353L215.205,308.038z"/>
						<g>
							<path style="fill:#252933;" d="M212.053,257.447l61.584-18.506c0,0-17.916-26.85-39.752-17.806
								C233.884,221.135,205.412,229.865,212.053,257.447z"/>
							<path style="fill:#2F3340;" d="M212.303,275.802c0,0,27.943-31.449,73.035-20.799c0,0,28.762-13.297,13.25-16.702
								c-15.512-3.405-66.911,5.835-99.301,24.876C166.895,282.218,212.303,275.802,212.303,275.802z"/>
						</g>
						<g>
							<path style="fill:none;stroke:#D1886E;stroke-width:1.8115;stroke-linecap:round;stroke-miterlimit:10;" d="M257.613,273.732
								c0,0,7.21,8.882,8.882,10.232c1.672,1.35,2.9,1.958,2.793,3.04c-0.107,1.082-1.57,2.641-4.129,1.981"/>
							<path style="fill:#E08679;" d="M242.438,288.779c0.249,2.221,3.823,3.68,7.981,3.257c4.158-0.422,7.327-2.565,7.078-4.786
								c-0.249-2.221-3.823-3.68-7.981-3.257C245.357,284.414,242.188,286.557,242.438,288.779z"/>
							<path style="fill:none;stroke:#373646;stroke-width:1.8115;stroke-linecap:round;stroke-miterlimit:10;" d="M242.714,271.421
								c0,0,0.399-2.022,3.673-4.021c3.273-1.999,6.401-0.694,6.401-0.694"/>
							<path style="fill:none;stroke:#373646;stroke-width:1.8115;stroke-linecap:round;stroke-miterlimit:10;" d="M277.395,268.345
								c0,0-1.028-1.807-4.798-2.77c-3.77-0.964-6.344,1.17-6.344,1.17"/>
							<path style="fill:#D8677B;" d="M266.425,301.614c0,0,1.259-1.258-2.034-2.79c-3.293-1.532-7.027-0.471-6.782,1.158
								c0.245,1.628,0.379,2.794,2.688,4.005C262.605,305.198,266.541,304.997,266.425,301.614z"/>
							<path style="fill:none;stroke:#D1886E;stroke-width:1.8115;stroke-linecap:round;stroke-miterlimit:10;" d="M268.605,301.21
								c0,0-9.229,2.629-13.512-3.73"/>
							<path style="fill:#E08679;" d="M271.927,285.219c0.249,2.221,3.591,3.703,7.464,3.31c3.873-0.393,6.811-2.513,6.561-4.734
								c-0.25-2.221-3.591-3.703-7.464-3.31C274.615,280.879,271.677,282.998,271.927,285.219z"/>
							<path style="fill:#373646;" d="M251.193,281.566L251.193,281.566c-1.528,0.174-2.92-0.934-3.094-2.461l-0.443-3.892
								c-0.174-1.528,0.934-2.92,2.461-3.094l0,0c1.528-0.174,2.92,0.934,3.094,2.461l0.443,3.892
								C253.828,279.999,252.72,281.392,251.193,281.566z"/>
							<path style="fill:#373646;" d="M271.135,280.407L271.135,280.407c-1.529,0.162-2.913-0.957-3.074-2.486l-0.413-3.896
								c-0.162-1.529,0.957-2.913,2.486-3.074l0,0c1.529-0.162,2.913,0.957,3.074,2.486l0.413,3.895
								C273.782,278.861,272.664,280.245,271.135,280.407z"/>
						</g>
					</g>
				</g>
				<g>
					<path style="fill:#EDEDED;" d="M307.298,386.761c6.409-22.059-17.796-38.346-24.778-58.993c0,0-14.223-1.929-13.902-0.964
						c1.42,4.26,16.345,25.87-2.124,25.34c-18.469-0.53-26.125-21.429-32.643-23.549c-6.518-2.12-17.599,2.441-17.599,2.441
						s24.18,61.672,19.835,89.225c-1.808,11.467-8.326,23.957-13.91,34.163h75.457c-3.766-9.532-4.328-24.37-1.704-35.06
						C298.676,408.177,304.089,397.809,307.298,386.761z"/>
					<g>
						
							<rect x="243.964" y="390.549" transform="matrix(0.9921 -0.1253 0.1253 0.9921 -47.2138 37.439)" style="fill:#BD112E;" width="59.855" height="6.685"/>
						<path style="fill:#BD112E;" d="M244.619,415.222l54.804-6.924c0.875-2.37,1.796-4.726,2.719-7.081l-58.361,7.373
							L244.619,415.222z"/>
						<path style="fill:#BD112E;" d="M244.619,429.544l50.513-6.382c0.223-1.255,0.484-2.519,0.798-3.799
							c0.259-1.057,0.549-2.104,0.852-3.147l-53.001,6.696L244.619,429.544z"/>
						<path style="fill:#BD112E;" d="M244.619,442.033l49.624-6.27c-0.071-2.245-0.023-4.492,0.15-6.757l-50.612,6.394
							L244.619,442.033z"/>
						<path style="fill:#BD112E;" d="M244.41,453.802l17.133-0.483l34.242-4.326c-0.416-2.231-0.764-4.429-1.026-6.608
							l-50.978,6.441L244.41,453.802z"/>
					</g>
					<path style="opacity:0.14;fill:#2F3340;" d="M248.757,350.62c-12.419,0-7.942,26.131-7.942,58.366
						c0,17.942,3.122,33.985,8.029,44.692l29.283-0.825c4.695-10.697,7.663-26.378,7.663-43.867
						C285.79,376.751,261.176,350.62,248.757,350.62z"/>
				</g>
				<path style="fill:#2F3340;" d="M261.929,395.431c-0.539-11.487-2.179-22.922-4.925-34.089
					c-1.653-6.722-4.121-13.273-7.807-19.162c-2.298-3.672-9.272-13.93-14.329-13.93c0,0-12.448-2.449-20.116,2.815
					c-3.632,2.493-5.866,6.575-7.324,10.732c-5.219,14.883-7.448,30.629-8.28,46.325c-0.69,13.022,0.152,26.143,3.01,38.882
					c2.05,9.14,4.1,18.28,6.15,27.421c6.271,0,12.541,0,18.812,0c7.219,0,18.275,2.163,25.181,0.002
					c5.582-1.746,6.057-13.537,7.051-19.119c1.453-8.154,2.335-16.409,2.646-24.685C262.19,405.561,262.166,400.491,261.929,395.431
					z M231.313,429.918c-1.033,3.527-2.609,6.866-4.083,10.232c-1.879,4.29-3.594,8.652-5.156,13.068
					c0.741-2.095-1.355-8.121-1.715-10.604c-0.58-4.001-1.084-8.012-1.49-12.034c-0.827-8.189-1.259-16.421-1.148-24.653
					c0.111-8.245,0.765-16.485,2.048-24.633c0.621-3.947,1.265-17.989,5.421-20.107l0.109-0.133
					c2.561,13.749,4.724,27.572,6.483,41.446C232.94,411.636,233.902,421.081,231.313,429.918z"/>
				<path style="fill:#2F3340;" d="M387.46,333.457c-4.763-0.029-8.729,2.17-13.018,3.995c-4.783,2.036-9.566,4.071-14.349,6.107
					c-5.477,2.331-15.342,3.59-21.309,4.259c-2.519,0.282-5.023,0.425-7.451-0.417c-5.461-1.894-10.74-4.288-15.869-6.947
					c-4.885-2.533-9.527-5.937-14.65-7.95c-5.323-2.091-11.461-3.846-17.048-5.016c-4.197-0.879-14.959-1.011-14.93-0.925
					l-0.097-0.039c1.572,0.632,3.304,2.943,4.505,4.074c3.652,3.438,7.164,7.029,10.494,10.781
					c7.482,8.432,16.383,19.212,17.471,30.866c0.28,2.997-0.01,6.02-0.467,8.996c-2.26,14.724-8.573,28.668-10.06,43.49
					c-1.004,10.005,0.256,20.231,3.657,29.694c2.299,0.008,4.597,0.015,6.896,0.023c-1.468-0.005-3.362-14.55-3.531-16.141
					c-0.6-5.65-0.57-11.367,0.091-17.01c1.337-11.404,5.655-22.098,9.708-32.75c4.16-10.934,3.876-18.031-0.856-28.729
					c11.481,5.354,25.808,12.297,38.298,10.179c8.116-1.376,15.589-5.143,20.963-10.981c4.051-4.402,10.311-6.066,15.34-9.303
					c3.754-2.417,9.721-4.634,10.796-9.449C392.727,337.201,390.596,333.475,387.46,333.457z"/>
			</g>
			<g>
				<path style="fill:#BD112E;" d="M279.154,178.979c0-3.728-3.05-6.777-6.777-6.777h-69.942c-3.728,0-6.777,3.05-6.777,6.777
					v17.892c0,3.727,3.05,6.777,6.777,6.777h58.104c0,0,4.157,5.06,0.361,14.639c-0.185,0.467-0.849,1.905-0.217,2.313
					c0.573,0.369,1.63-0.443,2.06-0.736c1.277-0.872,2.428-1.938,3.535-3.014c1.476-1.435,2.872-2.953,4.207-4.518
					c1.438-1.686,2.808-3.434,4.077-5.251c1.161-1.662,2.254-3.387,3.145-5.212c0.73-1.493,1.264-2.83,1.378-4.501
					c0.053-0.773,0.068-1.818,0.068-2.593c0-1.853,0-3.706,0-5.559c0-2.049,0-4.098,0-6.147c0-1.276,0-2.552,0-3.828
					C279.154,179.153,279.154,179.066,279.154,178.979z"/>
				
					<text transform="matrix(1 0 0 1 207.8655 192.9693)" style="fill:#FFFFFF; font-family:'LeagueSpartan-Bold'; font-size:12.5493px;">Bonjour!</text>
			</g>
		</g>
		<g>
			<g>
				<path style="fill:#1B1D24;" d="M416.999,324.664c0,0-17.861-11.111-42.766-6.916c0,0-9.862-20.032-8.077-22.549
					c1.785-2.517,1.805-14.309,1.805-14.309l69.005,6.577L416.999,324.664z"/>
				<g>
					<g>
						<path style="fill:#F5B381;" d="M441.67,343.461c0,0-2.584-8.521-17.582-11.668c-2.677-0.562-1.561-0.372-7.499-1.73
							c-5.721-2.771-2.622-19.403-2.622-19.403l-23.105,4.371c0,0-1.283,17.195-20.875,10.944l-11.466,36.956l69.917-7.51
							l1.02-3.123L441.67,343.461z"/>
						<path style="fill:#F5A971;" d="M424.089,331.793c-2.677-0.562-1.561-0.372-7.499-1.73c-5.721-2.771-2.622-19.403-2.622-19.403
							l-7.741,1.464c0.943,2.768,1.461,5.746,1.461,8.851c0,14.641-11.418,26.509-25.504,26.509c-6.449,0-12.334-2.493-16.825-6.595
							l-6.839,22.042l69.917-7.51l1.02-3.123l12.212-8.836C441.67,343.461,439.086,334.94,424.089,331.793z"/>
					</g>
					<g>
						<path style="fill:#2F3340;" d="M422.86,426.152l-55.303-2.331c0,0-1.364,18.194-2.687,30.603h68.117
							C429.607,446.799,422.477,430.139,422.86,426.152z"/>
						<path style="fill:#F5B381;" d="M425.392,435.925c-1.475-4.078-2.523-7.595-2.539-9.382l-30.408-1.496l-24.896-1.113
							c-0.047,0.626-0.314,4.137-0.703,8.887C382.768,435.203,407.844,438.083,425.392,435.925z"/>
					</g>
					<g>
						<path style="fill:#F5B381;" d="M486.212,333.616l0.868-6.601c0,0,6.797-4.031,10.114-10.533s6.946-11.127,4.988-12.322
							c-2.543-1.552-5.854,7.844-6.786,7.273c-0.932-0.57,6.098-12.964,3.603-14.523c-2.496-1.559-6.162,10.157-7.43,10.438
							c-1.268,0.281,6.362-13.489,3.024-14.487c-3.338-0.998-6.116,11.618-7.355,11.679c-1.239,0.061,3.04-12.058,0.977-12.536
							c-2.064-0.477-5.134,8.408-5.669,12.478c-0.535,4.07-1.236,5.993-2.776,5.79c-1.54-0.203-0.131-7.516-3.136-6.791
							c-3.005,0.724-3.525,13.19-1.692,17.124c1.833,3.934,0.05,7.281,0.05,7.281"/>
						<g>
							<path style="fill:#CE8400;" d="M473.418,323.771c-6.04,16.185-18.155,36.425-19.655,39.693
								c-0.262-0.286-0.533-0.568-0.79-0.857c-3.715-4.166-6.967-8.587-9.17-13.596c-0.926-2.106-1.655-4.29-2.461-6.44
								c-2.28,0.863-4.782,1.859-7.549,3.015c-25.882,10.814-40.098,10.808-47.903,7.286c-1.904-0.859-3.416-1.931-4.631-3.103
								c-0.556-0.537-1.056-1.092-1.492-1.662c-3.795-4.956-3.293-10.781-3.288-10.773c0-0.244,0.023-0.489,0.036-0.734
								c0.035-0.629,0.099-1.259,0.21-1.881c0.264-1.473,0.711-2.9,1.203-4.158l2.75-3.013c-1.766-0.288-7.218-1.492-8.924-1.949
								c0,0-0.025,0.059-0.025,0.058c-6.103-1.654-12.517,5.283-16.977,8.47c-6.463,4.618-11.204,10.469-17.118,14.783
								c-1.446,1.055-2.961,2.021-4.59,2.851c-6.774,3.451-15.386,5.064-26.146,8.195c-0.05,0.015-0.101,0.029-0.151,0.044
								c2.474,5.623,3.702,10.258,3.703,14.988c3.172-0.21,6.339-0.507,9.493-0.902c4.454-0.557,8.904-1.401,13.291-2.528
								c2.449-0.629,4.832-1.551,7.168-2.645c6.047-2.833,11.763-6.858,17.39-10.226c-0.413,1.03-0.786,2.056-1.137,3.078
								c-0.297,0.864-0.569,1.723-0.822,2.578c-3.559,12.006-2.805,22.973,2.389,28.772c6.328,7.063,8.601,19.173,9.015,31.39
								c18.276,4.241,40.766,3.478,56.389,2.09c-0.159-0.292-0.3-0.562-0.462-0.858c-2.668-4.866-3.349-10.314-2.767-15.893
								c1.229-11.781,8.117-24.147,14.008-32.861c3.542,3.974,6.14,8.676,9.548,12.786c1.946,2.347,4.159,4.491,6.43,6.584
								c5.269,2.596,13.959-4.793,19.922-16.26c10.218-19.65,17.971-49.61,17.971-49.61
								C482.409,330.058,473.418,323.771,473.418,323.771z"/>
							<path style="fill:#AA6B07;" d="M400.604,404.432c6.001-1.453,13.616-5.383,15.286-10.119
								c-3.719,3.072-12.84,3.306-17.99,3.814c-0.961,0.095-1.928,0.153-2.897,0.18c-8.857,0.245-17.859-2.431-26.246-4.734
								c-3.995-1.097-8.037-1.833-12.076-2.585c0.466,0.761,0.967,1.484,1.54,2.125c1.112,1.241,2.092,2.646,2.966,4.173
								c8.817,1.772,17.495,3.974,26.142,6.429C391.613,404.931,396.332,405.466,400.604,404.432z"/>
						</g>
					</g>
					<g>
						<g>
							<g>
								<path style="fill:#F5B381;" d="M371.505,275.426c-2.469,21.893,6.524,38.692,23.953,40.471
									c17.429,1.778,34.577-14.102,36.876-34.491c2.299-20.389-9.966-38.36-27.394-40.139
									C387.511,239.489,373.804,255.036,371.505,275.426z"/>
								<path style="fill:#F5A971;" d="M428.174,279.584c1.821-16.142-5.506-30.733-17.277-37.009
									c14.168,4.78,23.464,20.858,21.437,38.831c-2.3,20.39-19.447,36.27-36.876,34.491c-3.706-0.378-7.1-1.471-10.157-3.11
									c1.9,0.632,3.899,1.074,5.997,1.288C408.727,315.853,425.874,299.973,428.174,279.584z"/>
							</g>
							<path style="fill:#101115;" d="M417.017,256.833c0,0-4.942,27.95,3.468,43.112c0,0-1.96,21.234-3.486,24.72
								c0,0,44.747-12.993,14.385-74.532c-1.007-2.041-2.409-3.849-4.191-5.126c-0.779-0.558-1.632-1.027-2.469-1.211
								c0,0-4.563-7.92-18.227-10.581c-19.981-3.891-34.666,8.358-40.775,29.305c-8.47,29.042,8.531,50.379,9.261,55.229
								c0,0-8.946-44.845,0.841-55.598c0,0,20.224,3.251,31.028-2.592c2.549-1.379,5.286-2.289,8.125-2.561
								C415.605,256.936,416.286,256.881,417.017,256.833z"/>
							<g>
								<path style="fill:none;stroke:#D1886E;stroke-width:1.8115;stroke-linecap:round;stroke-miterlimit:10;" d="
									M395.331,273.732c0,0-7.21,8.882-8.882,10.232c-1.672,1.35-2.899,1.958-2.793,3.04c0.107,1.082,1.57,2.641,4.13,1.981"/>
								<path style="fill:#E08679;" d="M410.506,288.779c-0.249,2.221-3.823,3.68-7.981,3.257c-4.158-0.422-7.327-2.565-7.078-4.786
									c0.249-2.221,3.823-3.68,7.981-3.257C407.587,284.414,410.755,286.557,410.506,288.779z"/>
								<path style="fill:none;stroke:#101115;stroke-width:1.8115;stroke-linecap:round;stroke-miterlimit:10;" d="
									M410.229,271.421c0,0-0.399-2.022-3.673-4.021c-3.273-1.999-6.401-0.694-6.401-0.694"/>
								<path style="fill:none;stroke:#101115;stroke-width:1.8115;stroke-linecap:round;stroke-miterlimit:10;" d="
									M375.549,268.345c0,0,1.028-1.807,4.797-2.77c3.77-0.964,6.344,1.17,6.344,1.17"/>
								<path style="fill:#E08679;" d="M381.017,285.219c-0.249,2.221-3.591,3.703-7.464,3.31c-3.873-0.393-6.811-2.513-6.561-4.734
									c0.25-2.221,3.591-3.703,7.464-3.31C378.329,280.879,381.266,282.998,381.017,285.219z"/>
								<g>
									
										<path style="fill:none;stroke:#101115;stroke-width:1.2065;stroke-linecap:round;stroke-linejoin:round;stroke-miterlimit:10;" d="
										M374.019,276.13c0,0,5.833-5.827,10.466,0.507"/>
									<path style="fill:#101115;" d="M374.544,275.376c0,0-1.274,0.216-2.053-0.669c0,0,2.096,0.542,2.867,0.106"/>
									<path style="fill:#101115;" d="M375.23,274.718c0,0-1.274,0.216-2.053-0.669c0,0,2.096,0.542,2.867,0.106"/>
								</g>
								<path style="fill:#FFFFFF;" d="M384.016,296.946c0,0,10.375-0.236,12.63-2.483c0,0,1.459,10.877-4.909,9.576
									C385.37,302.739,384.016,296.946,384.016,296.946z"/>
							</g>
						</g>
						<g>
							
								<path style="fill:none;stroke:#101115;stroke-width:1.2065;stroke-linecap:round;stroke-linejoin:round;stroke-miterlimit:10;" d="
								M407.688,280c0,0-4.468-7.212-11.142-2.397"/>
							<path style="fill:#101115;" d="M407.351,279.13c0,0,1.277,0.559,2.348-0.078c0,0-2.357-0.056-3.042-0.688"/>
							<path style="fill:#101115;" d="M406.818,278.307c0,0,1.277,0.559,2.348-0.078c0,0-2.357-0.056-3.042-0.688"/>
						</g>
					</g>
				</g>
			</g>
			<g>
				<path style="fill:#585F78;" d="M354.746,196.466c0-3.713,3.038-6.75,6.75-6.75h69.664c3.713,0,6.75,3.038,6.75,6.75v17.821
					c0,3.713-3.038,6.75-6.75,6.75h-57.873c0,0-4.14,5.04-0.36,14.581c0.184,0.465,0.846,1.898,0.216,2.304
					c-0.571,0.368-1.624-0.441-2.052-0.734c-1.272-0.869-2.419-1.93-3.521-3.002c-1.47-1.429-2.86-2.941-4.191-4.501
					c-1.432-1.68-2.796-3.42-4.061-5.23c-1.157-1.656-2.245-3.374-3.133-5.191c-0.727-1.487-1.258-2.818-1.372-4.483
					c-0.053-0.77-0.068-1.811-0.068-2.583c0-1.846,0-3.691,0-5.537c0-2.041,0-4.082,0-6.123c0-1.271,0-2.542,0-3.813
					C354.746,196.639,354.746,196.553,354.746,196.466z"/>
				<g>
					<g>
						<path style="fill:#FFFFFF;" d="M371.285,210.48c-1.316,0.24-3.05,0.344-4.546,0.344c-1.255,0-2.347-0.075-2.929-0.195
							c-1.809-0.404-2.586-1.54-2.586-2.855c0-1.152,0.642-2.302,1.524-3.199l0.868,0.448c-0.837,0.866-1.316,1.823-1.316,2.66
							c0,0.868,0.584,1.66,1.869,1.945c0.524,0.12,1.405,0.18,2.438,0.18c1.45,0,3.184-0.12,4.605-0.404L371.285,210.48z
							 M364.571,202.93c0.777-0.598,1.839-1.33,2.646-1.734v-0.015c-1.137,0.135-3.738,0.195-5.397,0.18
							c0-0.284,0-0.777-0.015-1.048c0.329,0.015,6.07,0.106,8.523-0.478l0.12,1.106c-1.78,0.21-4.067,1.765-5.024,2.527
							L364.571,202.93z"/>
						<path style="fill:#FFFFFF;" d="M372.875,210.973c1.106-3.17,2.946-8.463,3.528-10.047c0.284-0.808,0.673-1.944,0.777-2.318
							l1.616,0.418c-0.075,0.21-0.284,0.284-0.584,0.284c-0.822,2.049-2.094,5.548-2.647,7.042h0.015
							c0.882-1.077,2.227-1.839,3.275-1.839c1.301,0,1.928,0.882,1.883,2.272l-0.044,1.78c-0.015,1.121,0.583,1.734,1.554,1.734
							c1.347,0,2.586-1.541,3.275-4.112c0.299,0.209,0.659,0.404,0.972,0.553c-0.822,2.855-2.302,4.651-4.291,4.651
							c-1.585,0-2.616-0.957-2.616-2.482c0-0.284,0.045-1.66,0.045-1.974c0-0.943-0.389-1.436-1.046-1.436
							c-1.72,0-3.454,2.497-3.828,3.47c-0.21,0.522-0.539,1.479-0.823,2.347L372.875,210.973z"/>
						<path style="fill:#FFFFFF;" d="M390.882,199.237c-0.045,0.164-0.194,0.253-0.493,0.238c-0.524,2.438-0.793,5.113-0.793,6.729
							c0,1.121,0.045,2.258,0.195,2.96c0.283-0.733,0.926-2.302,1.135-2.826l0.628,0.659c-0.613,1.51-1.061,2.362-1.27,3.035
							c-0.075,0.253-0.12,0.493-0.12,0.702c0,0.164,0.029,0.315,0.075,0.464l-1.063,0.195c-0.478-1.421-0.657-3.155-0.657-5.144
							c0-1.958,0.315-4.695,0.793-7.282L390.882,199.237z M400.406,210.166c-0.538,0.031-1.092,0.046-1.645,0.046
							c-1.061,0-2.063-0.06-2.78-0.166c-1.84-0.269-2.692-1.286-2.692-2.481c0-1.032,0.568-1.9,1.405-2.886l0.972,0.418
							c-0.748,0.779-1.27,1.496-1.27,2.348c0,1.734,2.542,1.734,4.096,1.734c0.628,0,1.301-0.031,1.929-0.075L400.406,210.166z
							 M393.484,201.031c1.929-0.046,4.529-0.224,6.518-0.568l0.09,1.046c-1.855,0.315-4.86,0.508-6.58,0.553L393.484,201.031z"/>
						<path style="fill:#FFFFFF;" d="M413.374,201.151c-1.943,0.493-4.649,0.807-6.428,0.866c-0.195,1.869-0.464,3.41-0.703,3.963
							c1.166-0.943,2.975-1.585,4.247-1.585c2.227,0,3.588,1.196,3.588,3.215c0,2.975-3.006,3.977-7.864,4.096
							c-0.06-0.284-0.166-0.733-0.299-0.986c4.292-0.091,7.072-0.823,7.072-3.081c0-1.346-0.897-2.272-2.631-2.272
							c-1.33,0-3.619,0.806-4.605,2.287l-1.047-0.493c0.479-0.539,0.972-2.677,1.197-5.128H402.4v-1.048
							c0.628,0.015,2.467,0.015,3.589,0.015c0.058-0.852,0.089-1.809,0.089-2.706l1.585,0.15c-0.031,0.253-0.209,0.298-0.479,0.329
							c-0.029,0.747-0.074,1.51-0.134,2.212c1.585-0.045,4.336-0.389,6.13-0.911L413.374,201.151z"/>
						<path style="fill:#FFFFFF;" d="M417.537,211.182c-0.464-1.077-0.642-3.304-0.642-5.262c0-1.989,0.313-4.486,0.806-6.982
							l1.45,0.284c-0.029,0.149-0.178,0.254-0.388,0.269c-0.538,2.049-0.866,4.709-0.866,6.445c0,1.135,0.015,2.272,0.134,2.825
							c0.33-0.897,0.928-2.332,1.241-3.035l0.673,0.628c-0.493,1.017-1.539,3.29-1.539,3.992c0,0.209,0.045,0.433,0.149,0.717
							L417.537,211.182z M421.335,202.377c1.255,0.014,2.511,0.029,3.768-0.06c-0.06-1.286-0.104-2.393-0.135-3.499l1.51,0.045
							c-0.014,0.15-0.149,0.269-0.389,0.315c0.015,0.957,0.045,1.928,0.075,3.064c1.181-0.12,2.138-0.329,2.931-0.597l0.134,1.046
							c-0.717,0.224-1.748,0.433-3.02,0.539c0.06,1.659,0.135,3.408,0.18,4.365c1.137,0.464,2.273,1.196,3.05,1.898l-0.583,0.957
							c-0.613-0.613-1.495-1.27-2.422-1.704c-0.015,1.27-0.254,2.691-2.497,2.691c-1.748,0-2.915-0.837-2.915-2.153
							c0-1.525,1.541-2.198,2.915-2.198c0.464,0,0.957,0.06,1.421,0.195c-0.044-0.943-0.134-2.513-0.209-3.978
							c-0.464,0.031-1.092,0.045-1.525,0.045h-2.273L421.335,202.377z M425.432,208.252c-0.479-0.149-0.987-0.269-1.481-0.269
							c-0.912,0-2.003,0.329-2.003,1.272c0,0.837,0.897,1.255,1.988,1.255c1.107,0,1.511-0.538,1.511-1.734L425.432,208.252z"/>
					</g>
				</g>
			</g>
		</g>
		<g>
			<g>
				<g>
					<path style="fill:#585F78;" d="M726.321,191.812c0-4.42-3.616-8.036-8.036-8.036h-82.929c-4.42,0-8.036,3.616-8.036,8.036
						v21.214c0,4.42,3.616,8.036,8.036,8.036h68.893c0,0,4.928,6,0.428,17.357c-0.219,0.554-1.007,2.259-0.257,2.742
						c0.68,0.438,1.933-0.525,2.443-0.873c1.515-1.034,2.879-2.298,4.191-3.573c1.75-1.702,3.405-3.501,4.988-5.358
						c1.705-1.999,3.329-4.072,4.834-6.226c1.377-1.971,2.672-4.016,3.729-6.179c0.865-1.77,1.498-3.355,1.634-5.337
						c0.063-0.916,0.08-2.155,0.08-3.075c0-2.197,0-4.394,0-6.591c0-2.43,0-4.859,0-7.289c0-1.513,0-3.026,0-4.539
						C726.321,192.019,726.321,191.916,726.321,191.812z"/>
					<g>
						<path style="fill:#FFFFFF;" d="M640.908,195.606c0,0.662,0.289,1.388,0.783,2.152c-0.177,0.177-0.382,0.345-0.634,0.521
							c0.046,1.202,0.112,2.683,0.112,3.885c0,0.634,0,1.416-0.457,2.739c-0.289,0.466-0.652,0.782-1.062,1.044
							c-0.596,0.391-1.333,0.586-1.948,0.586c-0.81,0-1.481-0.279-1.937-0.8c-0.429-0.494-0.662-1.203-0.662-2.106
							c0-0.782,0.251-1.565,0.625-2.348l0.335,0.131c-0.233,0.531-0.391,1.081-0.391,1.621c0,0.55,0.149,1.025,0.476,1.444
							c0.381,0.504,0.95,0.754,1.611,0.754c0.625,0,1.155-0.177,1.612-0.447c0.466-0.242,0.829-0.531,1.016-0.876
							c0.019-0.195,0.027-0.391,0.027-0.578c0-1.407-0.092-3.13-0.242-5.208c-0.029-0.382-0.085-0.811-0.085-1.221
							c0-0.27,0.029-0.522,0.197-0.736c0.129-0.195,0.326-0.392,0.559-0.587L640.908,195.606z"/>
						<path style="fill:#FFFFFF;" d="M648.484,201.485c0.261,0.466,0.43,0.913,0.596,1.407c0.122,0.289,0.187,0.829,0.764,0.829
							c0.168,0,0.41-0.065,0.625-0.205c0.241-0.149,0.428-0.372,0.522-0.717l0.233-0.913l0.559-0.326l0.037,0.047
							c-0.075,0.345-0.094,0.671-0.094,0.932c0,0.764,0.559,1.053,1.006,1.053c0.261,0,0.494-0.149,0.494-0.428
							c0-0.364-0.131-0.979-0.299-1.528c0.261-0.307,0.523-0.615,0.82-0.867l0.046,0.028c0.131,0.652,0.205,1.295,0.205,1.724
							c0,0.419-0.158,0.885-0.289,1.193c-0.27,0.596-0.746,1.071-1.323,1.071c-0.437,0-0.922-0.261-1.257-0.736h-0.019
							c-0.318,0.456-0.802,0.876-1.583,0.876h-0.243c-0.037,0.606-0.149,1.034-0.316,1.416c-0.467,1.072-1.845,1.826-3.141,1.826
							c-1.807,0-2.711-1.23-2.711-2.861c0-1.006,0.28-1.947,0.708-2.608l0.355,0.168c-0.27,0.606-0.448,1.183-0.448,1.742
							c0,1.527,1.053,2.254,2.273,2.254c1.128,0,2.526-0.848,2.777-1.826c-0.093-1.071-0.438-1.574-0.96-2.553
							c0.158-0.326,0.364-0.652,0.615-0.997H648.484z"/>
						<path style="fill:#FFFFFF;" d="M661.457,195.606c0,0.662,0.289,1.388,0.783,2.152c-0.177,0.177-0.382,0.345-0.634,0.521
							c0.046,1.202,0.112,2.683,0.112,3.885c0,0.634,0,1.416-0.457,2.739c-0.289,0.466-0.652,0.782-1.062,1.044
							c-0.596,0.391-1.333,0.586-1.948,0.586c-0.81,0-1.481-0.279-1.937-0.8c-0.429-0.494-0.662-1.203-0.662-2.106
							c0-0.782,0.252-1.565,0.625-2.348l0.335,0.131c-0.233,0.531-0.391,1.081-0.391,1.621c0,0.55,0.149,1.025,0.476,1.444
							c0.381,0.504,0.95,0.754,1.611,0.754c0.625,0,1.155-0.177,1.612-0.447c0.466-0.242,0.829-0.531,1.016-0.876
							c0.019-0.195,0.027-0.391,0.027-0.578c0-1.407-0.092-3.13-0.241-5.208c-0.029-0.382-0.085-0.811-0.085-1.221
							c0-0.27,0.029-0.522,0.197-0.736c0.129-0.195,0.326-0.392,0.559-0.587L661.457,195.606z"/>
						<path style="fill:#FFFFFF;" d="M663.855,205.305c0.092-0.587,0.102-1.248,0.102-1.863v-0.913c0-1.706-0.187-4.184-0.336-5.796
							c0.261-0.336,0.625-0.726,0.914-0.987l0.083,0.027c0.195,2.032,0.243,4.389,0.243,6.559c0,0.569-0.019,1.128-0.066,1.537
							c-0.027,0.513-0.279,0.904-0.819,1.501L663.855,205.305z"/>
						<path style="fill:#FFFFFF;" d="M668.812,203.544c-1.026,0-1.529,0.429-1.529,0.69c0,0.969,0.681,2.758,1.193,4.715
							c0.056,0.214,0.112,0.559,0.112,0.829c0,0.474-0.102,0.922-0.214,1.369l-0.224-0.029c-0.019-1.099-0.763-2.971-1.359-4.919
							c-0.093-0.317-0.178-0.773-0.178-1.072c0-0.419,0.085-0.829,0.243-1.23c0.195-0.522,0.466-0.96,0.839-1.211
							c-0.075-0.41-0.141-0.876-0.141-1.211c0-0.382,0.27-0.894,0.521-1.118c0.252-0.223,0.542-0.382,0.867-0.382
							c0.43,0,0.82,0.121,1.174,0.41c0.579,0.484,1.053,1.09,1.427,1.817c0.073,0.158,0.121,0.41,0.121,0.596
							c0,0.308-0.168,0.708-0.318,0.988C670.497,203.656,669.66,203.544,668.812,203.544z M670.675,202.482
							c-0.532-0.708-1.101-1.397-1.986-1.397c-0.185,0-0.381,0.037-0.568,0.102l0.027,0.485c-0.056,0.344-0.148,0.68-0.233,0.894
							c0.326-0.112,0.792-0.168,1.267-0.168c0.317,0,0.922,0.065,1.454,0.187L670.675,202.482z"/>
						<path style="fill:#FFFFFF;" d="M683.797,202.231c-1.174,0.456-2.282,0.941-3.168,1.472c-0.94,0.568-1.565,1.332-1.565,2.059
							c0,1.565,1.714,2.637,4.257,2.637c0.923,0,1.762-0.112,2.377-0.27l0.065,0.168c-0.474,0.354-0.987,0.717-1.565,1.043
							c-0.298,0.168-0.848,0.27-1.593,0.27c-2.265,0-4.174-1.072-4.174-3.476c0-1.22,0.652-2.227,1.547-3.009
							c-1.007-0.718-1.398-1.221-1.398-2.031c0-0.401,0.139-0.95,0.419-1.426c0.428-0.708,1.062-1.09,1.733-1.09
							c0.819,0,1.434,0.41,2.003,1.174l-0.149,0.195c-0.484-0.223-0.95-0.307-1.444-0.307c-1.034,0-1.864,0.522-1.864,0.904
							c0,0.42,0.243,0.755,0.81,1.183c0.336,0.243,0.802,0.504,0.988,0.504c0.186,0,0.354-0.093,0.512-0.168
							c0.839-0.4,1.678-0.764,2.516-1.081l0.047,0.028L683.797,202.231z"/>
						<path style="fill:#FFFFFF;" d="M692.529,195.606c0,0.662,0.289,1.388,0.782,2.152c-0.177,0.177-0.381,0.345-0.632,0.521
							c0.046,1.202,0.111,2.683,0.111,3.885c0,0.634,0,1.416-0.456,2.739c-0.289,0.466-0.652,0.782-1.063,1.044
							c-0.596,0.391-1.332,0.586-1.947,0.586c-0.81,0-1.481-0.279-1.938-0.8c-0.428-0.494-0.661-1.203-0.661-2.106
							c0-0.782,0.252-1.565,0.624-2.348l0.336,0.131c-0.233,0.531-0.391,1.081-0.391,1.621c0,0.55,0.148,1.025,0.474,1.444
							c0.382,0.504,0.951,0.754,1.612,0.754c0.625,0,1.155-0.177,1.612-0.447c0.466-0.242,0.829-0.531,1.016-0.876
							c0.019-0.195,0.027-0.391,0.027-0.578c0-1.407-0.093-3.13-0.241-5.208c-0.029-0.382-0.085-0.811-0.085-1.221
							c0-0.27,0.029-0.522,0.195-0.736c0.131-0.195,0.326-0.392,0.559-0.587L692.529,195.606z"/>
						<path style="fill:#FFFFFF;" d="M701.942,201.578c-0.177-0.792-0.447-1.165-0.708-1.165c-0.41,0-0.987,0.27-1.482,0.662
							c-0.522,0.41-0.912,0.867-0.912,1.202c0,0.829,2.422,0.726,3.075,1.257c0.241,0.224,0.409,0.522,0.409,1.044
							c0,0.494-0.336,1.314-0.764,1.724c-0.913,0.858-2.338,1.546-3.596,1.546c-2.171,0-3.223-1.463-3.223-3.419
							c0-0.866,0.195-1.611,0.493-2.301l0.363,0.121c-0.204,0.624-0.289,1.155-0.289,1.63c0,1.762,1.203,2.711,2.74,2.711
							c0.578,0,1.574-0.224,2.515-0.773c0.596-0.355,1.155-0.792,1.155-0.932c0-0.279-0.68-0.493-1.453-0.606
							c-0.82-0.121-1.463-0.298-1.706-0.568c-0.195-0.214-0.345-0.476-0.345-0.839c0-0.941,0.401-1.733,1.035-2.395
							c0.652-0.671,1.668-1.323,2.31-1.323c0.299,0,0.513,0.149,0.681,0.493c0.148,0.317,0.223,0.624,0.223,0.876
							c0,0.223-0.223,0.708-0.382,1.034L701.942,201.578z M697.554,210.682c-0.382-0.364-0.717-0.662-1.09-0.97
							c0.243-0.335,0.503-0.642,0.736-0.885c0.382,0.299,0.7,0.606,1.063,0.997C698,210.197,697.814,210.439,697.554,210.682z
							 M699.351,210.559c-0.381-0.362-0.717-0.661-1.089-0.968c0.242-0.335,0.503-0.642,0.736-0.885
							c0.382,0.299,0.698,0.606,1.062,0.997C699.799,210.075,699.613,210.318,699.351,210.559z"/>
						<path style="fill:#FFFFFF;" d="M711.307,195.653c-0.065,0.493,0.206,1.183,0.774,2.096c-0.195,0.167-0.411,0.335-0.652,0.503
							c0.075,1.333,0.083,2.637,0.083,3.913c0,0.578-0.316,1.556-0.727,2.143c-1.137,0.708-2.562,0.978-3.578,0.978
							c-1.193,0-1.974-0.354-2.459-0.931c-0.43-0.504-0.56-1.1-0.56-1.715c0-0.773,0.168-1.454,0.485-2.059l0.316,0.112
							c-0.131,0.363-0.233,0.764-0.233,1.183c0,0.857,0.27,1.416,0.885,1.789c0.532,0.326,1.109,0.429,1.714,0.429
							c0.951,0,1.984-0.178,3.112-0.755c0.26-0.131,0.279-0.317,0.279-1.314c0-1.043-0.083-2.431-0.177-3.848
							c-0.037-0.54-0.102-0.978-0.102-1.276c0-0.41,0.093-0.643,0.27-0.839c0.149-0.167,0.316-0.326,0.484-0.447L711.307,195.653z
							 M708.55,198.606l-0.093-0.047c-0.54,0.214-0.885,0.512-1.006,0.904h0.736c0.662,0,0.941,0.27,0.941,0.718
							c0,0.913-0.885,1.332-1.704,1.332c-0.243,0-0.43-0.009-0.606-0.047l-0.615-0.363v-0.065c1.193-0.037,2.395-0.345,2.395-0.708
							c0-0.093-0.215-0.093-0.839-0.093c-0.578,0-0.829,0-0.829-0.121v-0.364c0-0.392,0.214-0.82,0.596-1.286
							c0.354-0.419,0.81-0.745,1.043-0.745c0.149,0,0.214,0.075,0.214,0.214c0,0.159-0.102,0.41-0.195,0.671H708.55z"/>
						<path style="fill:#FFFFFF;" d="M715.689,203.544c-1.025,0-1.529,0.429-1.529,0.69c0,0.969,0.681,2.758,1.193,4.715
							c0.056,0.214,0.112,0.559,0.112,0.829c0,0.474-0.102,0.922-0.214,1.369l-0.223-0.029c-0.019-1.099-0.764-2.971-1.361-4.919
							c-0.093-0.317-0.177-0.773-0.177-1.072c0-0.419,0.083-0.829,0.241-1.23c0.196-0.522,0.466-0.96,0.839-1.211
							c-0.075-0.41-0.139-0.876-0.139-1.211c0-0.382,0.27-0.894,0.522-1.118c0.251-0.223,0.54-0.382,0.866-0.382
							c0.428,0,0.819,0.121,1.174,0.41c0.578,0.484,1.052,1.09,1.425,1.817c0.075,0.158,0.121,0.41,0.121,0.596
							c0,0.308-0.168,0.708-0.316,0.988C717.376,203.656,716.537,203.544,715.689,203.544z M717.553,202.482
							c-0.532-0.708-1.099-1.397-1.984-1.397c-0.187,0-0.382,0.037-0.569,0.102l0.029,0.485c-0.056,0.344-0.149,0.68-0.234,0.894
							c0.326-0.112,0.793-0.168,1.267-0.168c0.317,0,0.922,0.065,1.454,0.187L717.553,202.482z"/>
					</g>
				</g>
				<g>
					<g>
						<g>
							<g>
								<path style="fill:#1D1F26;" d="M641.761,326.739c0,0,16.747-8.935,37.19-2.286c20.443,6.649-42.326,8.393-42.326,8.393
									L641.761,326.739z"/>
								<path style="fill:#EEC098;" d="M629.023,253.328c15.3-28.109,56.767,1.784,54.546,16.104
									c-2.221,14.321-8.786,28.428-10.25,34.949c-1.137,5.062,3.842,22.557,6.129,30.137c-2.495,3.076-4.43,6.583-5.632,10.268
									c-0.152,0.466-0.32,0.926-0.487,1.387c-2.101,0.715-3.844,0.935-3.844,0.935c-23.232,3.838-24.596-9.064-24.596-9.064
									l-1.557-18.904c0,0-17.636,3.807-24.051-9.319C612.865,296.695,629.023,253.328,629.023,253.328z"/>
								<g>
									<path style="fill:#D1886E;" d="M643.332,319.14c0,0-0.355,0.075-0.968,0.167L643.332,319.14z"/>
									<path style="fill:#ECB685;" d="M657.294,314.626c0,0,6.143,22.902-10.66,27.413c-1.54-2.112-1.744-3.995-1.744-3.995
										l-1.557-18.904L657.294,314.626z"/>
								</g>
								<g>
									<path style="fill:none;stroke:#D1886E;stroke-width:1.5951;stroke-linecap:round;stroke-miterlimit:10;" d="
										M634.208,280.086c0,0-5.107,9.923-6.628,11.63c-1.521,1.707-3.473,1.369-3.368,4.692c0.105,3.323,6.117,5.855,9.823,3.569"
										/>
									<path style="fill:none;stroke:#101115;stroke-width:3.1902;stroke-linecap:round;stroke-miterlimit:10;" d="
										M645.537,275.005c0,0,4.796-0.127,7.414,1.845c2.618,1.972,2.923,5.086,2.923,5.086"/>
									<path style="fill:none;stroke:#101115;stroke-width:3.1902;stroke-linecap:round;stroke-miterlimit:10;" d="
										M623.746,273.589c0,0,1.226-1.248,4.532-1.238c3.306,0.009,4.978,2.277,4.978,2.277"/>
									<path style="fill:#E08679;" d="M644.175,291.009c-0.552,1.785,1.766,4.048,5.176,5.055c3.41,1.007,6.622,0.376,7.173-1.409
										c0.552-1.785-1.766-4.048-5.176-5.055C647.938,288.594,644.727,289.224,644.175,291.009z"/>
									<path style="fill:#E08679;" d="M617.849,287.416c-0.433,1.702,0.862,3.478,2.893,3.967c2.031,0.49,4.028-0.493,4.461-2.194
										c0.433-1.701-0.862-3.478-2.893-3.967C620.279,284.732,618.282,285.715,617.849,287.416z"/>
									
										<path style="fill:none;stroke:#18161B;stroke-width:1.4672;stroke-linecap:round;stroke-linejoin:round;stroke-miterlimit:10;" d="
										M649.682,287.991c0,0-1.269-8.878-8.157-4.216"/>
									
										<path style="fill:none;stroke:#18161B;stroke-width:1.4292;stroke-linecap:round;stroke-linejoin:round;stroke-miterlimit:10;" d="
										M629.139,283.306c0,0-3.831-8.18-8.452-1.435"/>
									<path style="fill:#FFFFFF;" d="M628.068,305.179c0,0,10.083,0.465,12.417-1.503c0,0,0.716,10.349-5.38,8.702
										C629.009,310.729,628.068,305.179,628.068,305.179z"/>
								</g>
								<g>
									<path style="fill:#D67A2F;" d="M685.784,266.496c-0.932-10.079-2.57-14.999-19.176-23.259l-2.047,1.374
										c-4.352-3.833,0.207,1.19,0.582,1.589c0.648-0.872,1.157-1.863,1.465-2.963c1.378-4.92-1.614-10.01-6.683-11.369
										c-4.567-1.224-9.252,1.004-11.145,5.054c-2.054-4.26-5.935-7.66-10.966-9.008c-9.095-2.438-18.472,2.742-20.945,11.569
										c-2.473,8.827,2.895,17.959,11.99,20.397c6.028,1.616,12.167-0.129,16.351-4.049c-0.098,5.464,3.595,10.522,9.272,12.044
										c3.614,0.969,7.282,0.296,10.188-1.539l0,0.002c0,0,2.521,0.719,7.305-0.816c0,0-1.091,16.328-4.103,23.971
										c-3.012,7.644,3.898-4.589,8.144-3.169c4.246,1.42,2.075,4.661,2.075,4.661S686.572,275.017,685.784,266.496z"/>
									<path style="fill:#D67A2F;" d="M673.19,307.358c-0.069-1.212-0.038-2.232,0.13-2.977c0.813-3.623,3.202-9.593,5.544-16.637
										l-10.696,7.947C668.168,295.692,667.856,303.141,673.19,307.358z"/>
								</g>
								<g>
									<path style="fill:#EEC098;" d="M669.354,282.856c0,0,11.708,0.401,10.295,7.346c-2.125,10.443-12.295,5.566-13.482,3.704"
										/>
									<path style="fill:#D9975C;" d="M676.909,290.58c0,0,1.293-3.945-2.986-4.7c0,0-2.966,0.641-2.688,2.715
										c0,0,3.612,0.795,2.328,3.464c0,0-1.054,1.722-3.358,0.212c0,0-0.216,1.246,1.779,1.924
										C673.979,294.874,675.783,293.468,676.909,290.58z"/>
									<path style="fill:none;stroke:#D1886E;stroke-width:1.5951;stroke-linecap:round;stroke-miterlimit:10;" d="
										M676.795,289.034c0,0,0.416-1.941-2.033-2.932c-2.449-0.991-3.189,1.403-3.526,2.494c0,0,3.823,1.303,2.328,3.464
										c-1.495,2.161-3.332-0.217-3.332-0.217"/>
								</g>
							</g>
							<g>
								<g>
									<g>
										<path style="fill:#EEC098;" d="M612.01,438.651c2.126-4.977,4.184-12.072,6.31-17.048
											c3.892-9.112,7.812-24.383,7.844-33.654l-16.827-4.852c-6.304,23.406-11.078,47.27-14.077,71.328h11.144
											C607.912,449.126,609.745,443.952,612.01,438.651z"/>
										<path style="fill:#ECB685;" d="M612.01,438.651c2.126-4.977,4.184-12.072,6.31-17.048
											c3.892-9.112,7.812-24.383,7.844-33.654l-2.802-0.808c-0.223,9.326-4.03,24.034-7.823,32.912
											c-2.126,4.977-4.184,12.072-6.31,17.048c-2.174,5.088-3.521,11.188-4.585,17.323h1.76
											C607.912,449.126,609.745,443.952,612.01,438.651z"/>
									</g>
									<path style="opacity:0.18;fill:#242730;" d="M608.73,385.429c-0.127,0.481-0.25,0.964-0.376,1.445
										c2.611,0.931,11.912,4.048,17.72,3.435c0.034-0.549,0.056-1.079,0.068-1.596
										C620.578,389.337,611.758,386.489,608.73,385.429z"/>
								</g>
								<path style="fill:#2F3340;" d="M703.37,331.576c-2.842-1.514-24.44-7.128-24.44-7.128s-12.984,12.984-37.169,2.291
									c0,0-22.403,6.619-24.695,11.202c-2.291,4.582-9.42,47.098-9.42,47.098s12.729,4.837,19.348,3.564
									c0,0-4.02,42.787-8.611,65.821h74.759c1.89-22.146,1.571-66.84,1.571-66.84s23.931,1.018,26.477-3.055
									C723.737,380.456,708.195,334.146,703.37,331.576z"/>
								<g>
									<path style="fill:#242730;" d="M641.086,326.943c-3.729,1.139-21.964,6.886-24.02,10.998
										c-2.291,4.582-9.42,47.098-9.42,47.098s12.603,4.788,19.249,3.58c3.606-7.679-4.273-47.439,20.181-57.341
										C644.627,330.112,642.57,328.642,641.086,326.943z"/>
									<path style="fill:#242730;" d="M721.191,384.529c2.36-3.777-10.827-43.859-16.607-51.724
										c-0.575-0.515-1.144-1.001-1.706-1.455c-3.38-1.421-16.709-4.995-21.881-6.361c-0.931,1.63-2.335,3.115-4.12,4.394
										c8.901,15.667,17.204,48.878,17.844,59.307c-0.003-0.714-0.006-1.107-0.006-1.107S718.645,388.603,721.191,384.529z"/>
									<path style="fill:#292D38;" d="M694.529,420.417c-6.564,12.142-18.993,25.904-33.007,34.007h31.621
										C693.918,445.336,694.322,432.455,694.529,420.417z"/>
								</g>
							</g>
						</g>
						<g>
							<g>
								<path style="fill:#EEC098;" d="M719.912,385.562c-4.15,2.106-15.885,2.205-21.758,2.112
									c-0.037-0.001-0.081-0.001-0.117-0.001c1.005,3.049,1.96,6.115,2.878,9.192c0.352,1.179,0.915,2.286,1.215,3.483
									c0.44,1.757-0.082,2.268-1.914,2.484c-6.659,0.785-12.504,4.02-19.419,2.243c-5.647-1.451-9.63-5.7-11.907-10.91
									c-1.541-3.528-3.136-4.596-2.689-8.475c0.097-0.841,0.634-3.121-1.197-2.483c-0.496,0.173-0.849,0.596-1.147,1.017
									c-1.568,2.221-2.188,1.978-1.937,4.654c0.111,1.192,0.69,1.729,0.631,2.925c-0.059,1.196-0.572,2.469-1.662,3.037
									c-1.374,0.715-2.489,0.332-3.893-0.144c-2.27-0.77-6.245-1.709-7.916,0.583c-0.508,0.697-0.707,1.556-0.693,2.408
									c0.002,0.104,0.209,1.192,0.173,1.222c-2.801,2.351,0,5.578,0,5.578c-1.513,1.034-1.481,2.299-1.088,3.291
									c-0.006,0.304,0.028,0.61,0.146,0.887c0.153,0.36,0.388,0.672,0.658,0.958c-1.404,1.056-1.506,3.986-0.373,5.232
									c0.61,0.671,1.455,1.075,2.295,1.415c3.256,1.315,6.792,1.902,10.302,1.818c3.141-0.075,6.277-0.679,9.407-0.403
									c2.095,0.185,4.107,0.84,6.163,1.163c10.369,1.628,20.701,4.05,31.27,3.726c3.542-0.109,7.342-0.643,9.931-3.062
									c4.249-3.972,3.926-10.963,3.851-16.292c-0.044-3.097-0.214-6.192-0.442-9.28
									C720.626,393.165,719.535,385.754,719.912,385.562z"/>
								<path style="opacity:0.18;fill:#242730;" d="M719.912,385.562c-0.025,0.012-0.057,0.023-0.082,0.035
									c-0.215,0.105-0.449,0.206-0.7,0.301c-0.049,0.019-0.097,0.038-0.148,0.056c-0.592,0.214-1.273,0.403-2.025,0.57
									c-0.068,0.015-0.136,0.03-0.204,0.044c-0.372,0.079-0.755,0.154-1.157,0.223c-0.004,0.001-0.008,0.001-0.012,0.002
									c-0.423,0.072-0.863,0.139-1.313,0.201c-0.061,0.008-0.123,0.016-0.184,0.024c-0.401,0.053-0.81,0.103-1.228,0.149
									c-0.057,0.006-0.112,0.013-0.169,0.019c-0.476,0.051-0.959,0.097-1.449,0.139c-0.007,0.001-0.014,0.001-0.021,0.002
									c-0.473,0.04-0.951,0.075-1.432,0.108c-0.071,0.005-0.141,0.009-0.212,0.014c-0.992,0.064-1.994,0.114-2.986,0.151
									c-0.054,0.002-0.108,0.004-0.163,0.006c-0.481,0.017-0.959,0.032-1.432,0.044c-0.013,0-0.026,0.001-0.039,0.001
									c-1.017,0.025-2.005,0.039-2.945,0.044c-0.013,0-0.027,0-0.04,0c-1.467,0.008-2.813-0.003-3.932-0.021
									c0.133,0.405,0.259,0.811,0.39,1.216c5.608,0.094,16.896,0.021,21.45-1.893
									C719.817,386.184,719.812,385.613,719.912,385.562z"/>
							</g>
							<path style="fill:#ECB685;" d="M721.125,403.218c-0.044-3.097-0.214-6.192-0.442-9.28c-0.042-0.567-0.639-4.701-0.806-6.941
								c-0.68,0.286-1.523,0.526-2.462,0.736c0.183,1.448,0.353,2.698,0.375,2.991c0.229,3.088,0.399,6.183,0.442,9.28
								c0.075,5.329,0.398,12.32-3.851,16.292c-2.588,2.42-6.389,2.954-9.931,3.062c-7.432,0.228-15.274,0.707-22.881,0.407
								c8.533,1.48,17.073,3.074,25.774,2.807c3.542-0.109,7.342-0.643,9.931-3.062
								C721.523,415.539,721.201,408.547,721.125,403.218z"/>
						</g>
					</g>
					<path style="fill:#242730;" d="M678.951,324.453c-0.054,0.035-0.101,0.08-0.153,0.119c-0.086,0.079-0.218,0.196-0.39,0.342
						c-2.399,2.026-13.166,9.769-31.356,3.848c-1.702-0.554-3.461-1.213-5.292-2.022c0,0-0.247,0.073-0.675,0.204
						c1.484,1.699,3.541,3.169,5.99,4.335c3.689,1.757,8.281,2.813,13.279,2.813c6.598,0,12.501-1.828,16.522-4.707
						c1.785-1.278,3.189-2.764,4.12-4.394C679.785,324.67,679.033,324.474,678.951,324.453z"/>
				</g>
			</g>
			<g>
				<g>
					<path style="fill:#13151A;" d="M703.408,330.005c0.816,0.923,2.276,3.096,1.248,6.004c0,0-0.731,2.401-0.948,2.764
						c-0.302,0.503-3.34,4.856-4.045,8.109c-0.132,0.61,0.158,1.259,0.737,1.491c0.278,0.112,0.614,0.13,0.99-0.074
						c0.009-0.005,0.019,0.004,0.013,0.012c-0.194,0.278-1.577,2.321-0.866,3.063c0,0,0.902,1.43,3.374-0.28
						c0.074-0.051,0.176-0.012,0.19,0.077c0.079,0.502,0.387,1.785,1.473,1.523c0.941-0.228,2.538-1.164,3.635-1.864
						c-0.903,0.617-3.213,2.091-4.427,2.385c-1.085,0.263-1.394-1.021-1.473-1.523c-0.014-0.089-0.116-0.128-0.19-0.077
						c-2.473,1.711-3.374,0.28-3.374,0.28c-0.711-0.742,0.672-2.785,0.866-3.063c0.006-0.008-0.004-0.017-0.013-0.012
						c-0.376,0.204-0.712,0.186-0.99,0.074c-0.579-0.233-0.869-0.881-0.737-1.491c0.705-3.253,3.743-7.606,4.045-8.109
						c0.218-0.363,0.949-2.763,0.949-2.763c0.908-2.57-0.126-4.563-0.942-5.629c0.042-0.167,0.077-0.335,0.098-0.503
						C703.041,330.235,703.117,329.676,703.408,330.005z"/>
				</g>
				<g>
					<g>
						<g>
							<path style="fill:#69492C;" d="M704.727,336.607c0,0,0.125-6.187-3.471-3.781l1.417-4.066l4.284,2.791L704.727,336.607z"/>
							<path style="fill:#A27145;" d="M710.252,350.134c0,0-0.045,1.065,1.029,1.197c0.639,0.079,1.268-0.223,1.658-0.735
								c0.045-0.059,0.094-0.124,0.145-0.194c1.376-1.882,2.055-4.182,1.977-6.512c-0.008-0.249-0.021-0.506-0.038-0.768
								c-0.19-2.869-1.332-5.591-3.164-7.807c-1.293-1.564-3.101-3.682-4.243-4.725c-1.927-1.761-2.214-1.859-2.233-1.865
								c-0.199-0.052-0.441-0.291-0.621-0.395c-0.48-0.278-0.986-0.519-1.515-0.687c-0.576-0.184-1.206-0.296-1.806-0.172
								c-0.69,0.142-1.046,0.565-1.469,1.083c-0.661,0.809-1.492,1.845-1.548,2.943c-0.068,1.342,1.5,1.905,2.609,1.6
								c1.205-0.331,1.838-1.537,1.987-2.7c0.021-0.163,0.097-0.723,0.388-0.393c0.816,0.923,2.276,3.096,1.248,6.004
								c0,0-0.731,2.401-0.949,2.764c-0.302,0.503-3.34,4.856-4.045,8.109c-0.132,0.61,0.158,1.258,0.737,1.491
								c0.278,0.112,0.614,0.13,0.99-0.074c0.009-0.005,0.019,0.003,0.013,0.012c-0.194,0.278-1.577,2.321-0.866,3.063
								c0,0,0.902,1.43,3.374-0.28c0.074-0.051,0.176-0.012,0.19,0.077c0.079,0.502,0.387,1.785,1.473,1.523
								C706.917,352.368,709.618,350.589,710.252,350.134z"/>
						</g>
						<g>
							<path style="fill:#69492C;" d="M701.39,348.299c0.831-0.502,1.572-1.117,2.268-1.773c0.701-0.654,1.337-1.372,1.941-2.117
								c1.176-1.506,2.201-3.183,2.715-5.054c-0.624,0.744-1.182,1.495-1.763,2.232c-0.587,0.731-1.145,1.477-1.737,2.202
								C703.665,345.265,702.484,346.71,701.39,348.299z"/>
							<path style="fill:#69492C;" d="M703.884,351.082c0.782-0.456,1.477-1.022,2.128-1.629c0.656-0.604,1.249-1.271,1.811-1.964
								c1.092-1.401,2.042-2.966,2.495-4.717c-0.593,0.685-1.118,1.377-1.661,2.059l-1.618,2.039
								C705.971,348.24,704.881,349.585,703.884,351.082z"/>
							<path style="fill:#69492C;" d="M710.168,350.202c0.953-0.693,1.681-1.607,2.295-2.584c0.593-0.986,1.075-2.074,1.193-3.248
								c-0.673,0.96-1.237,1.904-1.832,2.857C711.246,348.188,710.661,349.139,710.168,350.202z"/>
						</g>
					</g>
					<path style="fill:#780C1D;" d="M700.874,327.698c-0.003,0-0.005-0.002-0.008-0.002c-1.594-0.232-6.482,0.956-6.482,0.956
						l4.455,1.322c0,0,0.058-0.033,0.155-0.09c0.294-0.484,0.656-0.934,0.979-1.329C700.26,328.203,700.523,327.904,700.874,327.698
						z"/>
				</g>
			</g>
		</g>
	</g>
</g>
</svg>
