<?xml version="1.0" encoding="utf-8"?>
<!-- Generator: Adobe Illustrator 27.5.0, SVG Export Plug-In . SVG Version: 6.00 Build 0)  -->
<svg version="1.1" xmlns="http://www.w3.org/2000/svg" xmlns:xlink="http://www.w3.org/1999/xlink" x="0px" y="0px"
	 viewBox="0 0 500 500" style="enable-background:new 0 0 500 500;" xml:space="preserve">
<g id="Background_Complete">
	<path style="fill:#EBEBEB;" d="M324.175,90.02l0.557,1.009c0.625,1.132,1.565,2.063,2.708,2.682l1.018,0.552l-1.018,0.552
		c-1.143,0.619-2.082,1.55-2.708,2.682l-0.557,1.009l-0.557-1.009c-0.625-1.132-1.565-2.063-2.708-2.682l-1.018-0.552l1.018-0.552
		c1.143-0.619,2.083-1.55,2.708-2.682L324.175,90.02z"/>
	<path style="fill:#EBEBEB;" d="M113.84,44.775l0.557,1.008c0.625,1.132,1.565,2.063,2.708,2.682l1.018,0.552l-1.018,0.552
		c-1.143,0.619-2.083,1.55-2.708,2.682l-0.557,1.009l-0.557-1.009c-0.625-1.132-1.565-2.063-2.708-2.682l-1.018-0.552l1.018-0.552
		c1.143-0.619,2.082-1.55,2.708-2.682L113.84,44.775z"/>
	<path style="fill:#EBEBEB;" d="M444.311,154.688l0.557,1.008c0.625,1.132,1.565,2.063,2.708,2.682l1.018,0.552l-1.018,0.552
		c-1.143,0.619-2.082,1.55-2.708,2.682l-0.557,1.009l-0.557-1.009c-0.625-1.132-1.565-2.063-2.708-2.682l-1.018-0.552l1.018-0.552
		c1.143-0.619,2.082-1.55,2.708-2.682L444.311,154.688z"/>
	<path style="fill:#EBEBEB;" d="M33.237,224.309l0.557,1.008c0.625,1.132,1.565,2.063,2.708,2.682l1.018,0.552l-1.018,0.552
		c-1.143,0.619-2.083,1.55-2.708,2.682l-0.557,1.009l-0.557-1.009c-0.625-1.132-1.565-2.063-2.708-2.682l-1.018-0.552l1.018-0.552
		c1.143-0.619,2.083-1.55,2.708-2.682L33.237,224.309z"/>
	<path style="fill:#EBEBEB;" d="M224.512,41.694l0.952,1.741c1.069,1.954,2.675,3.561,4.629,4.629l1.741,0.952l-1.741,0.952
		c-1.954,1.069-3.56,2.675-4.629,4.629l-0.952,1.741l-0.952-1.741c-1.069-1.954-2.675-3.56-4.629-4.629l-1.741-0.952l1.741-0.952
		c1.954-1.069,3.56-2.675,4.629-4.629L224.512,41.694z"/>
	<path style="fill:#EBEBEB;" d="M94.633,127.27l0.952,1.741c1.069,1.954,2.675,3.561,4.629,4.629l1.741,0.952l-1.741,0.952
		c-1.954,1.069-3.561,2.675-4.629,4.629l-0.952,1.741l-0.952-1.741c-1.069-1.954-2.675-3.561-4.629-4.629l-1.741-0.952l1.741-0.952
		c1.954-1.069,3.561-2.675,4.629-4.629L94.633,127.27z"/>
	<path style="fill:#EBEBEB;" d="M417.964,69.379l0.276,0.504c0.31,0.566,0.775,1.031,1.341,1.341l0.504,0.276l-0.504,0.276
		c-0.566,0.31-1.031,0.775-1.341,1.341l-0.276,0.504l-0.276-0.504c-0.31-0.566-0.775-1.031-1.341-1.341l-0.504-0.276l0.504-0.276
		c0.566-0.31,1.031-0.775,1.341-1.341L417.964,69.379z"/>
	<path style="fill:#EBEBEB;" d="M41.233,149.545l0.276,0.504c0.31,0.566,0.775,1.031,1.341,1.341l0.504,0.276l-0.504,0.276
		c-0.566,0.31-1.031,0.775-1.341,1.341l-0.276,0.504l-0.276-0.504c-0.31-0.566-0.775-1.031-1.341-1.341l-0.504-0.276l0.504-0.276
		c0.566-0.309,1.031-0.775,1.341-1.341L41.233,149.545z"/>
	<g>
		<path style="fill:#EBEBEB;" d="M101.007,392.339c7.464,7.099,15.065,16.732,25.32,15.766
			c11.286-1.063,19.668-15.115,30.709-12.542c5.957,1.388,9.63,7.178,14.389,11.021c9.549,7.713,23.956,7.16,34.66,1.151
			c10.704-6.009,18.196-16.496,23.677-27.48c16.218-32.498,17.288-70.243,16.933-106.562L250,151.749l3.305,125.011
			c-0.356,36.319,0.715,74.063,16.933,106.562c5.481,10.983,12.974,21.47,23.677,27.48c10.704,6.009,25.111,6.563,34.66-1.15
			c4.758-3.844,8.431-9.633,14.389-11.022c11.04-2.573,19.423,11.479,30.709,12.542c10.255,0.966,17.856-8.667,25.32-15.766
			c10.391-9.882,24.174-15.814,38.413-17.354c7.242-20.83,11.188-43.204,11.188-66.502c0-111.803-90.634-202.437-202.437-202.437
			S43.72,199.749,43.72,311.551c0,22.012,3.521,43.199,10.017,63.04C70.995,374.231,88.47,380.415,101.007,392.339z"/>
		<g>
			<path style="fill:#FFFFFF;" d="M355.155,262.042h124.259c0,0-10.988-19.996-42.973-17.086c-30.547,2.78-32.1-9.837-47.633-11.39
				C373.276,232.012,360.332,243.921,355.155,262.042z"/>
		</g>
		<g>
			<path style="fill:#FFFFFF;" d="M19.955,287.678h79.439c0,0-7.025-12.784-27.473-10.923c-19.529,1.777-20.522-6.289-30.452-7.282
				C31.539,268.48,23.265,276.093,19.955,287.678z"/>
		</g>
		<path style="fill:#E0E0E0;" d="M208.904,405.984c0.501-0.336,0.998-0.678,1.484-1.033c0.224-0.164,0.445-0.333,0.666-0.501
			c0.48-0.365,0.954-0.739,1.42-1.123c0.189-0.155,0.378-0.311,0.564-0.469c0.536-0.455,1.062-0.922,1.578-1.401
			c0.1-0.092,0.202-0.182,0.301-0.275c1.956-1.842,3.776-3.842,5.469-5.96c0.008-0.01,0.016-0.02,0.024-0.03
			c0.567-0.711,1.121-1.434,1.661-2.169c0,0,0,0,0.001-0.001c-6.716-0.476-13.612,0.422-20.042-1.541
			c-13.126-4.006-20.394-18.541-32.9-24.194c-16.483-7.45-37.807,2.268-52.989-7.565c-11.404-7.387-14.263-22.544-21.569-34
			c-10.828-16.979-31.399-26.005-50.747-20.424c-0.063,2.078-0.105,4.161-0.105,6.254c0,21.112,3.247,41.462,9.243,60.596
			c0.463,0.813,0.927,1.627,1.425,2.44c0.183-0.002,0.367,0.007,0.55,0.007c0.843-0.003,1.685,0.002,2.528,0.03
			c0.215,0.007,0.43,0.023,0.646,0.032c0.854,0.037,1.708,0.081,2.56,0.149c0.207,0.016,0.413,0.041,0.619,0.06
			c0.859,0.076,1.716,0.161,2.571,0.269c0.206,0.026,0.411,0.061,0.616,0.089c0.853,0.116,1.705,0.239,2.553,0.387
			c0.211,0.036,0.419,0.082,0.63,0.121c0.84,0.154,1.678,0.314,2.512,0.499c0.222,0.049,0.441,0.108,0.662,0.159
			c0.818,0.19,1.634,0.385,2.445,0.604c0.24,0.065,0.476,0.141,0.716,0.208c0.787,0.222,1.573,0.448,2.352,0.698
			c0.261,0.084,0.517,0.18,0.777,0.266c0.751,0.251,1.501,0.504,2.243,0.781c0.287,0.107,0.569,0.228,0.854,0.339
			c0.707,0.275,1.415,0.55,2.112,0.849c0.316,0.135,0.625,0.286,0.939,0.427c0.658,0.294,1.318,0.586,1.966,0.902
			c0.348,0.169,0.687,0.356,1.032,0.531c0.605,0.308,1.213,0.611,1.808,0.938c0.377,0.207,0.743,0.432,1.116,0.646
			c0.551,0.317,1.106,0.627,1.648,0.96c0.414,0.255,0.816,0.53,1.224,0.794c0.487,0.315,0.98,0.622,1.459,0.951
			c0.461,0.317,0.908,0.656,1.36,0.986c0.411,0.299,0.829,0.587,1.232,0.896c0.533,0.408,1.047,0.84,1.566,1.266
			c0.309,0.253,0.627,0.494,0.93,0.753c0.815,0.696,1.613,1.414,2.391,2.154c7.464,7.099,15.065,16.732,25.32,15.766
			c11.286-1.063,19.668-15.115,30.709-12.542c5.957,1.388,9.63,7.178,14.389,11.021c9.549,7.713,23.956,7.16,34.66,1.151
			c0.744-0.418,1.47-0.862,2.183-1.322C208.483,406.274,208.691,406.126,208.904,405.984z"/>
		<path style="fill:#E0E0E0;" d="M401.6,393.085c0.46-0.389,0.918-0.779,1.389-1.154c0.255-0.203,0.519-0.395,0.777-0.594
			c0.44-0.339,0.879-0.681,1.328-1.008c0.275-0.2,0.557-0.389,0.835-0.584c0.445-0.313,0.888-0.628,1.34-0.929
			c0.28-0.186,0.567-0.362,0.851-0.544c0.46-0.296,0.92-0.593,1.387-0.877c0.283-0.171,0.571-0.333,0.857-0.5
			c0.478-0.28,0.955-0.56,1.439-0.827c0.283-0.156,0.57-0.303,0.856-0.454c0.497-0.264,0.993-0.529,1.497-0.78
			c0.279-0.14,0.563-0.271,0.844-0.406c0.517-0.249,1.034-0.497,1.557-0.733c0.277-0.124,0.557-0.242,0.835-0.362
			c0.536-0.233,1.072-0.463,1.614-0.682c0.271-0.109,0.544-0.211,0.816-0.317c0.557-0.216,1.115-0.43,1.678-0.631
			c0.263-0.094,0.529-0.182,0.793-0.273c0.577-0.199,1.155-0.393,1.737-0.577c0.257-0.081,0.515-0.156,0.773-0.234
			c0.594-0.179,1.19-0.354,1.789-0.517c0.252-0.069,0.504-0.133,0.757-0.198c0.609-0.159,1.22-0.312,1.833-0.454
			c0.247-0.057,0.495-0.111,0.743-0.165c0.622-0.137,1.246-0.267,1.872-0.387c0.243-0.047,0.486-0.09,0.73-0.134
			c0.633-0.114,1.266-0.221,1.902-0.317c0.241-0.037,0.481-0.071,0.722-0.105c0.354-0.05,0.707-0.109,1.062-0.154
			c0.787-1.092,1.534-2.188,2.251-3.284c6.563-19.931,10.129-41.223,10.129-63.352c0-4.092-0.136-8.151-0.375-12.183
			c-19.53-4.894-37.9,5.042-48.123,22.39c-6.898,11.706-9.223,26.954-20.36,34.738c-14.827,10.362-36.479,1.399-52.69,9.424
			c-12.3,6.089-19.051,20.87-32.029,25.336c-6.042,2.079-12.597,1.587-18.981,2.145c0.001,0.002,0.003,0.004,0.004,0.005
			c0.526,0.788,1.072,1.562,1.627,2.328c0.147,0.203,0.297,0.404,0.446,0.606c0.454,0.613,0.919,1.217,1.393,1.813
			c0.134,0.168,0.265,0.339,0.4,0.506c0.598,0.737,1.211,1.46,1.84,2.165c0.111,0.125,0.227,0.244,0.339,0.368
			c0.527,0.58,1.065,1.147,1.614,1.703c0.189,0.191,0.379,0.381,0.571,0.57c0.565,0.555,1.141,1.096,1.729,1.623
			c0.118,0.106,0.233,0.217,0.352,0.321c0.7,0.614,1.419,1.205,2.153,1.777c0.188,0.147,0.382,0.286,0.572,0.43
			c0.576,0.434,1.163,0.855,1.76,1.262c0.223,0.152,0.445,0.305,0.671,0.452c0.786,0.514,1.584,1.011,2.408,1.473
			c10.704,6.009,25.111,6.563,34.66-1.15c4.758-3.844,8.431-9.633,14.389-11.022c11.04-2.573,19.423,11.479,30.709,12.542
			c10.255,0.966,17.856-8.667,25.32-15.766c0.641-0.609,1.295-1.203,1.961-1.782C401.165,393.44,401.386,393.266,401.6,393.085z"/>
	</g>
</g>
<g id="Background_Simple" style="display:none;">
	<path style="display:inline;fill:#F5F5F5;" d="M94.14,234.835c18.142,35.094,33.034,56.555,61.784,74.997
		c28.75,18.442,60.951,26.307,94.076,31.42c26.307,4.06,55.629,2.022,81.723-3.402c26.094-5.424,51.44-18.58,68.598-40.437
		c17.158-21.857,25.001-53.039,16.595-80.191c-6.396-20.659-21.667-37.531-40.011-46.691c-18.345-9.16-39.487-10.917-59.344-6.806
		c-11.714,2.426-23.034,6.809-34.797,8.947c-11.762,2.138-24.479,1.82-34.803-4.616c-21.536-13.425-23.702-45.816-38.126-67.654
		c-15.31-23.18-45.329-32.551-70.689-24.602s-45.307,31.366-53.364,58.456c-8.057,27.091-8.756,57.975,1.76,84.069L94.14,234.835z"
		/>
</g>
<g id="Floor">
	<g>
		<path style="fill:#263238;" d="M446.315,460.01c0,0.144-88.694,0.26-198.079,0.26c-109.423,0-198.098-0.117-198.098-0.26
			s88.675-0.26,198.098-0.26C357.62,459.75,446.315,459.866,446.315,460.01z"/>
	</g>
</g>
<g id="Starts">
	<g>
		
			<ellipse transform="matrix(0.0371 -0.9993 0.9993 0.0371 263.5974 524.2988)" style="fill:#455A64;" cx="403.86" cy="125.367" rx="16.582" ry="16.582"/>
		<path style="fill:#263238;" d="M409.264,119.016c0.035-1.493,1.275-2.675,2.768-2.639s2.675,1.275,2.639,2.768
			c-0.035,1.493-1.275,2.675-2.768,2.639S409.228,120.509,409.264,119.016z"/>
		<path style="fill:#263238;" d="M414.672,125.33c0.021-0.869,0.742-1.556,1.61-1.535c0.869,0.021,1.556,0.741,1.535,1.61
			c-0.021,0.869-0.741,1.556-1.61,1.535C415.339,126.919,414.652,126.199,414.672,125.33z"/>
		<path style="fill:#263238;" d="M412.561,130.161c0.32,0.008,0.574,0.273,0.566,0.594c-0.008,0.32-0.273,0.574-0.594,0.566
			c-0.32-0.008-0.574-0.273-0.566-0.594S412.241,130.153,412.561,130.161z"/>
	</g>
	<path style="fill:#455A64;" d="M371.061,199.471l0.568,1.038c0.637,1.165,1.596,2.124,2.761,2.761l1.038,0.568l-1.038,0.568
		c-1.165,0.637-2.124,1.596-2.761,2.761l-0.568,1.038l-0.568-1.038c-0.637-1.165-1.596-2.124-2.761-2.761l-1.038-0.568l1.038-0.568
		c1.165-0.637,2.124-1.596,2.761-2.761L371.061,199.471z"/>
	<path style="fill:#455A64;" d="M147.681,112.673l0.98,1.792c1.1,2.012,2.754,3.666,4.766,4.766l1.792,0.98l-1.792,0.98
		c-2.012,1.1-3.666,2.754-4.766,4.766l-0.98,1.792l-0.98-1.792c-1.1-2.012-2.754-3.666-4.766-4.766l-1.792-0.98l1.792-0.98
		c2.012-1.1,3.666-2.754,4.766-4.766L147.681,112.673z"/>
	<path style="fill:#455A64;" d="M83.744,53.556l0.362,0.662c0.406,0.743,1.017,1.353,1.759,1.759l0.662,0.362L85.865,56.7
		c-0.743,0.406-1.353,1.017-1.759,1.759l-0.362,0.662l-0.362-0.662c-0.406-0.743-1.017-1.353-1.759-1.759l-0.662-0.362l0.662-0.362
		c0.743-0.406,1.353-1.017,1.759-1.759L83.744,53.556z"/>
	<path style="fill:#455A64;" d="M184.133,334.822l0.181,0.331c0.203,0.371,0.508,0.677,0.88,0.88l0.331,0.181l-0.331,0.181
		c-0.371,0.203-0.677,0.508-0.88,0.88l-0.181,0.331l-0.181-0.331c-0.203-0.371-0.508-0.677-0.88-0.88l-0.331-0.181l0.331-0.181
		c0.371-0.203,0.677-0.508,0.88-0.88L184.133,334.822z"/>
	<path style="fill:#455A64;" d="M147.862,214.238l0.181,0.331c0.203,0.371,0.508,0.677,0.88,0.88l0.331,0.181l-0.331,0.181
		c-0.371,0.203-0.677,0.508-0.88,0.88l-0.181,0.331l-0.181-0.331c-0.203-0.371-0.508-0.677-0.88-0.88l-0.331-0.181l0.331-0.181
		c0.371-0.203,0.677-0.508,0.88-0.88L147.862,214.238z"/>
	<path style="fill:#455A64;" d="M440.639,180.509l0.181,0.331c0.203,0.371,0.508,0.677,0.88,0.88l0.331,0.181l-0.331,0.181
		c-0.371,0.203-0.677,0.508-0.88,0.88l-0.181,0.331l-0.181-0.331c-0.203-0.371-0.508-0.677-0.88-0.88l-0.331-0.181l0.331-0.181
		c0.371-0.203,0.677-0.508,0.88-0.88L440.639,180.509z"/>
	<path style="fill:#455A64;" d="M59.674,179.028l0.362,0.662c0.406,0.743,1.017,1.353,1.759,1.759l0.662,0.362l-0.662,0.362
		c-0.743,0.406-1.353,1.017-1.759,1.759l-0.362,0.662l-0.362-0.662c-0.406-0.743-1.017-1.353-1.759-1.759l-0.662-0.362l0.662-0.362
		c0.743-0.406,1.353-1.017,1.759-1.759L59.674,179.028z"/>
	<path style="fill:#455A64;" d="M334.333,326.006l0.362,0.662c0.406,0.743,1.017,1.353,1.759,1.759l0.662,0.362l-0.662,0.362
		c-0.743,0.406-1.353,1.017-1.759,1.759l-0.362,0.662l-0.362-0.662c-0.406-0.743-1.017-1.353-1.759-1.759l-0.662-0.362l0.662-0.362
		c0.743-0.406,1.353-1.017,1.759-1.759L334.333,326.006z"/>
	<path style="fill:#455A64;" d="M355.536,46.828l0.98,1.792c1.1,2.012,2.754,3.666,4.766,4.766l1.792,0.98l-1.792,0.98
		c-2.012,1.1-3.666,2.754-4.766,4.766l-0.98,1.792l-0.98-1.792c-1.1-2.012-2.754-3.666-4.766-4.766l-1.792-0.98l1.792-0.98
		c2.012-1.1,3.666-2.754,4.766-4.766L355.536,46.828z"/>
	<path style="fill:#455A64;" d="M116.202,263.726c-11.56-3.118-18.403-15.016-15.285-26.575c1.311-4.859,4.176-8.88,7.913-11.683
		c-5.931,2.51-10.691,7.62-12.498,14.32c-3.118,11.56,3.726,23.458,15.285,26.575c6.7,1.807,13.511,0.262,18.663-3.603
		C125.977,264.581,121.061,265.036,116.202,263.726z"/>
</g>
<g id="Plants">
	<g>
		<g>
			<path style="fill:#E8505B;" d="M403.628,428.187c1.477,2.109,4.348,1.411,5.679,0.124c1.331-1.288,1.894-3.154,2.406-4.934
				c1.17-4.066,2.35-8.332,1.48-12.473c-0.26-1.238-0.723-2.473-1.593-3.391c-0.87-0.919-2.208-1.465-3.431-1.142
				c-1.447,0.382-2.347,1.8-2.997,3.149c-1.911,3.964-2.923,8.359-2.938,12.76C402.227,424.335,402.469,426.49,403.628,428.187"/>
		</g>
		<g style="opacity:0.2;">
			<path d="M403.628,428.187c1.477,2.109,4.348,1.411,5.679,0.124c1.331-1.288,1.894-3.154,2.406-4.934
				c1.17-4.066,2.35-8.332,1.48-12.473c-0.26-1.238-0.723-2.473-1.593-3.391c-0.87-0.919-2.208-1.465-3.431-1.142
				c-1.447,0.382-2.347,1.8-2.997,3.149c-1.911,3.964-2.923,8.359-2.938,12.76C402.227,424.335,402.469,426.49,403.628,428.187"/>
		</g>
		<g>
			<path style="fill:#E8505B;" d="M409.162,438.87c2.415-1.246,5.26-1.408,7.941-0.965c1.441,0.238,2.943,0.669,3.923,1.751
				c0.98,1.082,1.166,2.987,0.041,3.917c-0.67,0.553-1.605,0.638-2.474,0.628c-2.099-0.024-4.429-0.394-6.106,0.869
				c-0.957,0.721-1.594,1.919-2.738,2.273c-1.119,0.347-2.382-0.314-2.976-1.324c-0.593-1.01-0.613-2.273-0.337-3.411
				C406.438,442.607,406.729,440.126,409.162,438.87z"/>
		</g>
		<g>
			<path style="fill:#E8505B;" d="M399.572,431.214c1.604-1.903,1.908-4.679,1.194-7.064c-0.714-2.384-2.326-4.413-4.184-6.069
				c-2.178-1.942-4.739-3.452-7.492-4.42c-1.083-0.381-2.226-0.682-3.369-0.573c-1.143,0.109-2.294,0.694-2.827,1.711
				c-0.789,1.504-0.033,3.328,0.785,4.816c1.44,2.622,3.087,5.13,4.921,7.493c1.475,1.901,3.164,3.777,5.412,4.636
				c2.248,0.859,4.583,0.758,5.774-0.801"/>
		</g>
		<g>
			<g>
				<path style="fill:#263238;" d="M403.528,460.01c0.028,0.002,0.072-0.34,0.134-0.959c0.068-0.698,0.153-1.574,0.255-2.616
					c0.122-1.101,0.283-2.411,0.589-3.837c0.305-1.423,0.782-2.965,1.395-4.529c0.635-1.555,1.408-2.968,2.313-4.098
					c0.898-1.135,1.942-1.957,2.924-2.431c0.978-0.483,1.856-0.68,2.462-0.767c0.612-0.063,0.954-0.111,0.954-0.138
					c0-0.027-0.343-0.032-0.971-0.015c-0.622,0.042-1.536,0.199-2.568,0.668c-1.034,0.459-2.142,1.293-3.084,2.452
					c-0.949,1.154-1.751,2.598-2.397,4.18c-0.623,1.591-1.094,3.149-1.385,4.603c-0.29,1.451-0.423,2.776-0.51,3.886
					c-0.083,1.111-0.115,2.01-0.13,2.632C403.494,459.664,403.501,460.008,403.528,460.01z"/>
			</g>
		</g>
		<g>
			<g>
				<path style="fill:#263238;" d="M403.708,457.997c0.014-0.001,0.022-0.154,0.026-0.445c-0.001-0.334-0.002-0.755-0.003-1.272
					c-0.003-1.104-0.002-2.701,0.057-4.674c0.098-3.945,0.437-9.391,1.093-15.377c0.661-5.988,1.537-11.374,2.335-15.238
					c0.189-0.969,0.379-1.84,0.558-2.604c0.171-0.765,0.316-1.424,0.457-1.958c0.121-0.502,0.219-0.912,0.297-1.236
					c0.064-0.284,0.091-0.435,0.078-0.439c-0.013-0.004-0.066,0.14-0.155,0.417c-0.097,0.32-0.219,0.723-0.369,1.219
					c-0.164,0.529-0.332,1.184-0.523,1.946c-0.2,0.76-0.409,1.63-0.616,2.597c-0.871,3.859-1.793,9.253-2.455,15.253
					c-0.657,5.998-0.953,11.46-0.98,15.415c-0.023,1.977,0.019,3.578,0.069,4.683c0.032,0.517,0.057,0.937,0.078,1.271
					C403.677,457.845,403.695,457.998,403.708,457.997z"/>
			</g>
		</g>
		<g>
			<g>
				<path style="fill:#263238;" d="M403.735,447.463c0.027-0.001,0.023-0.473-0.009-1.329c-0.049-0.854-0.166-2.088-0.407-3.6
					c-0.255-1.508-0.611-3.299-1.171-5.245c-0.532-1.953-1.264-4.061-2.193-6.206c-1.819-4.316-4.291-7.844-6.441-10.029
					c-0.504-0.58-1.066-0.998-1.515-1.408c-0.233-0.197-0.438-0.393-0.647-0.548c-0.21-0.145-0.406-0.28-0.588-0.405
					c-0.708-0.484-1.104-0.739-1.119-0.716c-0.064,0.086,1.585,1.056,3.667,3.271c2.073,2.21,4.476,5.714,6.28,9.993
					c0.922,2.126,1.658,4.215,2.206,6.149c0.575,1.927,0.957,3.7,1.246,5.193c0.274,1.496,0.433,2.718,0.529,3.564
					C403.651,446.994,403.708,447.464,403.735,447.463z"/>
			</g>
		</g>
	</g>
	<g>
		<g>
			<g>
				<g>
					<path style="fill:#263238;" d="M98.073,353.1c0,0,0.189-0.068,0.577-0.082c0.386-0.016,0.98,0.052,1.678,0.367
						c0.697,0.313,1.472,0.9,2.178,1.776c0.715,0.875,1.301,2.049,1.843,3.41c1.046,2.756,1.55,6.353,2.129,10.526
						c0.554,4.185,1.141,8.997,1.313,14.422l-0.005-0.039c0.246,0.812,0.784,1.772,1.671,1.836c0.432,0.027,0.856-0.173,1.274-0.413
						c0.416-0.243,0.825-0.517,1.238-0.795c0.826-0.556,1.671-1.135,2.607-1.609c0.921-0.441,2.031-0.872,3.153-0.511
						c1.079,0.398,1.874,1.308,2.286,2.375c0.389,1.081,0.38,2.262,0.181,3.386c-0.373,2.282-1.513,4.361-2.4,6.545
						c-0.935,2.18-1.892,4.414-2.872,6.698c-0.49,1.142-0.985,2.298-1.486,3.465c-0.25,0.584-0.502,1.171-0.755,1.761
						c-0.131,0.305-0.258,0.573-0.299,0.862c-0.041,0.286-0.039,0.596,0.072,0.827c0.195,0.495,0.88,0.39,1.441,0.114
						c0.597-0.267,1.197-0.536,1.799-0.807c1.213-0.54,2.459-1.052,3.758-1.462c1.297-0.403,2.657-0.734,4.08-0.709
						c0.707,0.016,1.438,0.149,2.097,0.492c0.661,0.336,1.207,0.915,1.509,1.593c0.617,1.375,0.485,2.902,0.199,4.298
						c-0.295,1.415-0.788,2.78-1.355,4.117c-1.147,2.671-2.603,5.236-4.207,7.747c-0.387,0.636-0.874,1.232-1.098,1.873
						c-0.113,0.321-0.139,0.641-0.003,0.905c0.032,0.067,0.072,0.132,0.122,0.194c0.033,0.044,0.137,0.168,0.129,0.13
						c0.017,0.023,0.204,0.013,0.358-0.038c1.333-0.483,2.628-1.37,3.95-2.105c1.323-0.76,2.682-1.518,4.169-2.041
						c0.743-0.256,1.522-0.459,2.341-0.483c0.808-0.043,1.712,0.216,2.314,0.853c0.596,0.623,0.856,1.498,0.876,2.31
						c0.028,0.817-0.068,1.624-0.242,2.408c-0.344,1.571-0.923,3.081-1.638,4.521c-1.396,2.904-3.279,5.569-5.345,8.094
						c-2.07,2.53-4.378,4.88-6.832,7.122c-1.188,1.172-2.549,2.126-3.851,3.169c-1.314,1.027-2.632,2.057-3.956,3.092l-0.046,0.035
						l-0.116,0.091l-0.138-0.053c-1.568-0.604-3.131-1.206-4.688-1.805c-1.549-0.621-3.133-1.13-4.607-1.915
						c-2.996-1.442-5.883-3.032-8.595-4.86c-2.705-1.825-5.277-3.837-7.449-6.218c-1.099-1.174-2.087-2.455-2.869-3.861
						c-0.392-0.701-0.716-1.447-0.925-2.237c-0.214-0.784-0.218-1.697,0.173-2.466c0.393-0.783,1.184-1.293,1.971-1.484
						c0.792-0.214,1.597-0.243,2.382-0.211c1.575,0.073,3.095,0.409,4.581,0.757c1.478,0.325,2.974,0.802,4.39,0.882
						c0.162,0.005,0.345-0.04,0.353-0.066c0.004,0.039,0.067-0.111,0.086-0.162c0.03-0.074,0.05-0.148,0.061-0.222
						c0.054-0.292-0.064-0.591-0.264-0.866c-0.4-0.55-1.037-0.98-1.59-1.479c-2.257-1.945-4.389-3.984-6.256-6.214
						c-0.926-1.118-1.791-2.285-2.48-3.556c-0.675-1.256-1.24-2.681-1.041-4.176c0.096-0.736,0.455-1.447,0.992-1.958
						c0.533-0.517,1.196-0.854,1.869-1.071c1.356-0.432,2.754-0.505,4.112-0.491c1.363,0.02,2.703,0.153,4.02,0.322
						c0.655,0.086,1.307,0.171,1.955,0.256c0.616,0.102,1.302,0.005,1.342-0.529c0.036-0.255-0.049-0.551-0.173-0.813
						c-0.122-0.264-0.322-0.485-0.535-0.74c-0.412-0.492-0.821-0.982-1.229-1.469c-0.815-0.974-1.621-1.939-2.419-2.892
						c-1.594-1.907-3.153-3.771-4.674-5.591c-1.477-1.837-3.166-3.501-4.178-5.58c-0.513-1.019-0.86-2.148-0.797-3.295
						c0.089-1.14,0.589-2.239,1.51-2.929c0.971-0.667,2.158-0.571,3.167-0.414c1.032,0.185,2.007,0.496,2.958,0.792
						c0.475,0.147,0.946,0.292,1.414,0.405c0.469,0.11,0.932,0.179,1.338,0.029c0.831-0.318,1.07-1.391,1.073-2.239l0.006,0.038
						c-1.391-5.236-2.21-10.005-2.88-14.166c-0.644-4.156-1.192-7.738-1.003-10.673c0.118-1.456,0.315-2.752,0.739-3.797
						c0.404-1.048,0.953-1.846,1.517-2.36c0.563-0.519,1.11-0.761,1.481-0.863c0.374-0.105,0.574-0.094,0.574-0.094
						c0.034,0.037-0.877-0.019-1.996,1.021c-0.544,0.515-1.071,1.305-1.456,2.341c-0.405,1.034-0.586,2.319-0.691,3.762
						c-0.162,2.909,0.408,6.471,1.076,10.624c0.693,4.148,1.537,8.919,2.94,14.117l0.006,0.023l0,0.016
						c0.003,0.491-0.066,0.97-0.24,1.442c-0.181,0.454-0.509,0.936-1.032,1.114c-0.51,0.191-1.054,0.098-1.53-0.01
						c-0.485-0.116-0.961-0.26-1.438-0.406c-0.953-0.293-1.918-0.596-2.917-0.771c-0.978-0.154-2.082-0.214-2.902,0.365
						c-0.786,0.583-1.282,1.629-1.346,2.657c-0.055,1.052,0.269,2.12,0.768,3.103c0.979,2.003,2.644,3.643,4.138,5.486
						c1.527,1.817,3.092,3.68,4.693,5.585c0.8,0.953,1.61,1.916,2.428,2.89c0.409,0.487,0.82,0.976,1.234,1.468
						c0.417,0.453,0.884,1.107,0.805,1.884c-0.024,0.406-0.39,0.776-0.76,0.867c-0.365,0.108-0.733,0.076-1.06,0.04
						c-0.651-0.084-1.306-0.168-1.964-0.253c-1.309-0.165-2.634-0.294-3.97-0.311c-1.331-0.013-2.694,0.068-3.963,0.476
						c-1.261,0.38-2.396,1.32-2.545,2.663c-0.178,1.312,0.336,2.67,0.996,3.882c0.668,1.228,1.518,2.374,2.432,3.474
						c1.843,2.196,3.963,4.22,6.207,6.148c0.544,0.495,1.177,0.901,1.671,1.564c0.238,0.319,0.435,0.77,0.352,1.23
						c-0.018,0.112-0.047,0.22-0.087,0.32c-0.058,0.116-0.039,0.164-0.186,0.323c-0.267,0.236-0.502,0.206-0.704,0.223
						c-1.598-0.091-3.017-0.569-4.513-0.891c-1.479-0.346-2.974-0.672-4.488-0.74c-0.753-0.031-1.515,0.002-2.225,0.195
						c-0.714,0.177-1.337,0.601-1.654,1.226c-0.318,0.635-0.33,1.398-0.131,2.118c0.193,0.727,0.499,1.438,0.878,2.112
						c0.754,1.353,1.72,2.608,2.8,3.76c2.134,2.337,4.679,4.328,7.36,6.135c2.684,1.809,5.563,3.393,8.525,4.818
						c1.451,0.775,3.042,1.286,4.585,1.905c1.554,0.598,3.114,1.199,4.679,1.801l-0.254,0.038l0.045-0.036
						c1.321-1.032,2.637-2.061,3.949-3.086c1.298-1.039,2.664-1.998,3.833-3.154c2.427-2.216,4.728-4.559,6.778-7.062
						c2.048-2.5,3.911-5.137,5.283-7.988c0.703-1.414,1.268-2.892,1.601-4.404c0.168-0.755,0.258-1.523,0.233-2.274
						c-0.016-0.747-0.248-1.474-0.736-1.989c-0.484-0.507-1.202-0.732-1.937-0.697c-0.735,0.02-1.474,0.207-2.186,0.453
						c-1.43,0.5-2.768,1.242-4.085,1.998c-1.34,0.737-2.562,1.602-4.065,2.149c-0.199,0.043-0.415,0.138-0.738-0.009
						c-0.187-0.109-0.184-0.161-0.272-0.256c-0.067-0.084-0.127-0.179-0.176-0.281c-0.212-0.417-0.154-0.905-0.018-1.279
						c0.283-0.777,0.773-1.347,1.151-1.978c1.595-2.491,3.044-5.038,4.179-7.67c0.56-1.316,1.045-2.658,1.332-4.026
						c0.284-1.351,0.387-2.799-0.158-4.005c-0.525-1.245-1.883-1.821-3.199-1.825c-1.333-0.028-2.661,0.287-3.932,0.681
						c-1.275,0.4-2.507,0.903-3.713,1.437c-0.606,0.27-1.209,0.539-1.808,0.806c-0.302,0.129-0.645,0.265-1.025,0.268
						c-0.378,0.022-0.839-0.222-0.981-0.604c-0.303-0.721-0.045-1.482,0.224-2.037c0.255-0.59,0.508-1.177,0.76-1.761
						c0.504-1.168,1.002-2.323,1.495-3.465c0.986-2.285,1.95-4.518,2.891-6.698c0.901-2.195,2.026-4.244,2.39-6.444
						c0.196-1.085,0.2-2.201-0.153-3.194c-0.356-0.966-1.131-1.826-2.051-2.161c-0.952-0.32-1.993,0.053-2.886,0.482
						c-0.907,0.455-1.744,1.022-2.573,1.576c-0.416,0.277-0.83,0.552-1.261,0.802c-0.424,0.24-0.919,0.486-1.462,0.45
						c-0.552-0.019-1.005-0.386-1.309-0.77c-0.302-0.402-0.506-0.842-0.644-1.313l-0.005-0.015l-0.001-0.024
						c-0.149-5.391-0.713-10.212-1.242-14.392c-0.554-4.178-1.032-7.76-2.044-10.499c-0.525-1.352-1.092-2.52-1.786-3.389
						c-0.685-0.871-1.436-1.457-2.114-1.777C98.903,352.825,98.052,353.144,98.073,353.1z"/>
				</g>
			</g>
		</g>
		<g>
			<g>
				<g>
					<path style="fill:#263238;" d="M113.64,460.2c-1.404-9.223-4.641-30.712-6.617-44.812c-1.975-14.095-3.774-26.855-5.127-36.085
						c-0.679-4.605-1.23-8.336-1.612-10.929c-0.188-1.281-0.334-2.28-0.435-2.972c-0.045-0.331-0.08-0.588-0.106-0.774
						c-0.022-0.175-0.027-0.265-0.027-0.265s0.024,0.088,0.055,0.261c0.032,0.185,0.077,0.441,0.134,0.77
						c0.114,0.691,0.278,1.687,0.488,2.964c0.421,2.575,1.002,6.305,1.702,10.916c1.404,9.223,3.235,21.98,5.21,36.075
						c1.976,14.1,5.181,35.592,6.533,44.822"/>
				</g>
			</g>
		</g>
		<g>
			<g>
				<g>
					<path style="fill:#263238;" d="M93.349,390.539c0.012-0.015,0.191,0.108,0.505,0.345c0.314,0.235,0.758,0.589,1.302,1.032
						c1.086,0.888,2.554,2.153,4.147,3.58c1.561,1.41,2.972,2.685,4.063,3.67c0.485,0.434,0.898,0.803,1.236,1.106
						c0.293,0.26,0.449,0.412,0.437,0.427c-0.012,0.016-0.192-0.107-0.507-0.341c-0.314-0.236-0.758-0.59-1.297-1.039
						c-1.078-0.899-2.528-2.183-4.121-3.609c-1.57-1.398-2.99-2.662-4.087-3.639c-0.488-0.432-0.902-0.799-1.242-1.1
						C93.492,390.707,93.337,390.555,93.349,390.539z"/>
				</g>
			</g>
		</g>
		<g>
			<g>
				<g>
					<path style="fill:#263238;" d="M105.759,400.379c-0.061-0.05,2.412-3.192,5.524-7.017c3.113-3.827,5.685-6.887,5.747-6.837
						c0.061,0.05-2.412,3.191-5.525,7.018C108.394,397.367,105.821,400.428,105.759,400.379z"/>
				</g>
			</g>
		</g>
		<g>
			<g>
				<g>
					<path style="fill:#263238;" d="M107.817,422.165c-0.01-0.017,0.165-0.152,0.492-0.383c0.379-0.263,0.844-0.586,1.392-0.966
						c1.174-0.816,2.791-1.948,4.531-3.262c1.743-1.31,3.28-2.549,4.386-3.455c0.517-0.421,0.955-0.779,1.313-1.07
						c0.312-0.251,0.491-0.383,0.504-0.368s-0.141,0.175-0.43,0.452c-0.29,0.277-0.717,0.669-1.255,1.141
						c-1.075,0.947-2.597,2.215-4.345,3.529c-1.745,1.318-3.386,2.427-4.591,3.202c-0.604,0.385-1.097,0.69-1.443,0.891
						C108.024,422.078,107.828,422.181,107.817,422.165z"/>
				</g>
			</g>
		</g>
		<g>
			<g>
				<g>
					<path style="fill:#263238;" d="M94.633,415.736c0.008-0.018,0.201,0.052,0.543,0.195c0.342,0.142,0.832,0.357,1.435,0.627
						c1.206,0.541,2.865,1.306,4.689,2.167c1.825,0.861,3.47,1.655,4.654,2.243c0.592,0.294,1.069,0.536,1.396,0.709
						c0.327,0.173,0.504,0.277,0.495,0.295c-0.008,0.018-0.201-0.052-0.543-0.195c-0.342-0.142-0.832-0.357-1.435-0.627
						c-1.207-0.541-2.865-1.306-4.69-2.167c-1.824-0.861-3.469-1.655-4.653-2.242c-0.592-0.294-1.069-0.536-1.396-0.709
						C94.801,415.858,94.625,415.754,94.633,415.736z"/>
				</g>
			</g>
		</g>
		<g>
			<g>
				<g>
					<path style="fill:#263238;" d="M94.006,435.199c0.008-0.018,0.254,0.074,0.692,0.257c0.487,0.211,1.104,0.478,1.842,0.798
						c1.55,0.685,3.683,1.649,6.031,2.73c2.349,1.081,4.469,2.075,5.997,2.807c0.722,0.352,1.327,0.648,1.804,0.88
						c0.423,0.214,0.653,0.34,0.645,0.358c-0.008,0.018-0.254-0.074-0.692-0.257c-0.487-0.211-1.104-0.478-1.842-0.798
						c-1.55-0.685-3.683-1.649-6.032-2.731c-2.348-1.081-4.468-2.074-5.996-2.806c-0.722-0.353-1.327-0.648-1.804-0.88
						C94.228,435.344,93.998,435.217,94.006,435.199z"/>
				</g>
			</g>
		</g>
		<g>
			<g>
				<g>
					<path style="fill:#263238;" d="M110.663,442.728c-0.011-0.016,0.207-0.194,0.612-0.5c0.45-0.336,1.028-0.769,1.721-1.287
						c1.452-1.087,3.453-2.596,5.615-4.322c2.166-1.723,4.086-3.334,5.468-4.509c0.66-0.559,1.211-1.026,1.639-1.389
						c0.389-0.326,0.61-0.5,0.624-0.485c0.013,0.015-0.183,0.216-0.549,0.568c-0.366,0.352-0.905,0.852-1.581,1.459
						c-1.35,1.215-3.253,2.853-5.423,4.58c-2.166,1.729-4.19,3.215-5.675,4.262c-0.743,0.522-1.35,0.937-1.775,1.215
						C110.914,442.598,110.674,442.744,110.663,442.728z"/>
				</g>
			</g>
		</g>
	</g>
</g>
<g id="Rocket">
	<path style="fill:#EBEBEB;" d="M323.112,431.799c-4.171-1.918-8.689-3.028-13.266-3.344c-13.037-0.9-25.145-6.756-34.848-15.509
		c-0.393-0.355-0.793-0.703-1.199-1.045c-6.185-5.205-12.684-13.372-14.023-21.343c-4.974-29.611-8.674-70.412-8.415-91.851h-2.973
		c0,0-0.331,52.108-10.026,96.187c-0.975,4.432-4.16,7.988-8.343,9.747c-9.371,3.942-17.432,11.146-22.278,20.067
		c-2.812,5.178-8.596,7.854-14.438,7.087c-6.788-0.891-13.848,0.21-19.963,3.299c-9.408,4.753-16.357,14.098-18.199,24.476
		l189.719,0.098C342.602,447.635,334.235,436.913,323.112,431.799z"/>
	<g>
		<g>
			<g>
				<g>
					<path style="fill:#E8505B;" d="M216.127,279.829h-40.088V143.741c0-11.07,8.974-20.044,20.044-20.044l0,0l0,0
						c11.07,0,20.044,8.974,20.044,20.044V279.829z"/>
					<path style="fill:#455A64;" d="M216.127,279.829h-40.088V143.741c0-11.07,8.974-20.044,20.044-20.044l0,0l0,0
						c11.07,0,20.044,8.974,20.044,20.044V279.829z"/>
					<g>
						<path style="fill:#263238;" d="M216.127,141.558c0,0.144-8.948,0.26-19.983,0.26c-11.039,0-19.984-0.117-19.984-0.26
							c0-0.144,8.946-0.26,19.984-0.26C207.18,141.298,216.127,141.415,216.127,141.558z"/>
					</g>
					<g>
						<path style="fill:#263238;" d="M216.127,176.302c0,0.144-8.948,0.26-19.983,0.26c-11.039,0-19.984-0.117-19.984-0.26
							s8.946-0.26,19.984-0.26C207.18,176.041,216.127,176.158,216.127,176.302z"/>
					</g>
					<g>
						<path style="fill:#263238;" d="M205.013,176.302c-0.144,0-0.26-7.778-0.26-17.371c0-9.596,0.117-17.373,0.26-17.373
							c0.144,0,0.26,7.776,0.26,17.373C205.273,168.524,205.157,176.302,205.013,176.302z"/>
					</g>
					<path style="fill:#263238;" d="M200.315,151.666c0,0.779-0.632,1.41-1.41,1.41c-0.779,0-1.411-0.632-1.411-1.41
						c0-0.779,0.632-1.411,1.411-1.411C199.683,150.255,200.315,150.887,200.315,151.666z"/>
					<path style="fill:#263238;" d="M200.315,163.679c0,0.779-0.632,1.411-1.41,1.411c-0.779,0-1.411-0.632-1.411-1.411
						c0-0.779,0.632-1.411,1.411-1.411C199.683,162.268,200.315,162.9,200.315,163.679z"/>
					<g>
						<path style="fill:#263238;" d="M216.127,246.97c0,0.144-8.948,0.26-19.983,0.26c-11.039,0-19.984-0.117-19.984-0.26
							s8.946-0.26,19.984-0.26C207.18,246.71,216.127,246.826,216.127,246.97z"/>
					</g>
					<g>
						<path style="fill:#263238;" d="M205.013,246.97c-0.144,0-0.26-7.778-0.26-17.371c0-9.596,0.117-17.373,0.26-17.373
							c0.144,0,0.26,7.777,0.26,17.373C205.273,239.192,205.157,246.97,205.013,246.97z"/>
					</g>
					<circle style="fill:#263238;" cx="198.904" cy="222.334" r="1.41"/>
					<circle style="fill:#263238;" cx="198.904" cy="234.347" r="1.41"/>
					<g>
						<path style="fill:#263238;" d="M176.16,211.951c0-0.144,8.948-0.26,19.983-0.26c11.039,0,19.984,0.117,19.984,0.26
							c0,0.144-8.946,0.26-19.984,0.26C185.108,212.211,176.16,212.095,176.16,211.951z"/>
					</g>
					<g>
						<path style="fill:#263238;" d="M187.275,211.951c-0.144,0-0.26-7.778-0.26-17.371c0-9.596,0.117-17.373,0.26-17.373
							c0.144,0,0.26,7.776,0.26,17.373C187.535,204.173,187.418,211.951,187.275,211.951z"/>
					</g>
					<path style="fill:#263238;" d="M191.973,187.315c0,0.779,0.632,1.41,1.41,1.41c0.779,0,1.411-0.632,1.411-1.41
						c0-0.779-0.632-1.411-1.411-1.411C192.604,185.904,191.973,186.536,191.973,187.315z"/>
					<path style="fill:#263238;" d="M191.973,199.328c0,0.779,0.632,1.411,1.41,1.411c0.779,0,1.411-0.632,1.411-1.411
						c0-0.779-0.632-1.411-1.411-1.411C192.604,197.918,191.973,198.549,191.973,199.328z"/>
				</g>
				<g>
					<path style="fill:#FAFAFA;" d="M178.672,144.989c-0.036-0.004-0.035-0.289-0.004-0.803c0.026-0.515,0.114-1.256,0.266-2.165
						c0.309-1.813,0.938-4.318,2.204-6.856c0.639-1.264,1.379-2.4,2.139-3.366c0.79-0.941,1.563-1.74,2.303-2.305
						c0.349-0.307,0.707-0.529,1.011-0.736c0.3-0.214,0.576-0.368,0.809-0.483c0.459-0.239,0.719-0.355,0.736-0.323
						c0.05,0.087-0.959,0.624-2.318,1.823c-0.691,0.586-1.415,1.39-2.163,2.32c-0.718,0.956-1.426,2.068-2.051,3.302
						c-1.236,2.478-1.91,4.919-2.308,6.694C178.903,143.872,178.756,144.998,178.672,144.989z"/>
				</g>
				<g>
					<path style="fill:#FAFAFA;" d="M194.904,126.245c0.024,0.142-0.603,0.367-1.4,0.502c-0.797,0.136-1.463,0.131-1.487-0.011
						c-0.024-0.142,0.603-0.367,1.4-0.502C194.214,126.098,194.88,126.103,194.904,126.245z"/>
				</g>
			</g>
			<g>
				<g>
					<path style="fill:#E8505B;" d="M280.589,279.829h40.088V143.741c0-11.07-8.974-20.044-20.044-20.044l0,0h0
						c-11.07,0-20.044,8.974-20.044,20.044V279.829z"/>
					<path style="fill:#455A64;" d="M280.589,279.829h40.088V143.741c0-11.07-8.974-20.044-20.044-20.044l0,0h0
						c-11.07,0-20.044,8.974-20.044,20.044V279.829z"/>
					<g>
						<path style="fill:#263238;" d="M280.589,141.558c0-0.144,8.948-0.26,19.983-0.26c11.039,0,19.984,0.117,19.984,0.26
							s-8.946,0.26-19.984,0.26C289.537,141.819,280.589,141.702,280.589,141.558z"/>
					</g>
					<g>
						<path style="fill:#263238;" d="M280.589,176.302c0-0.144,8.948-0.26,19.983-0.26c11.039,0,19.984,0.117,19.984,0.26
							c0,0.144-8.946,0.26-19.984,0.26C289.537,176.562,280.589,176.446,280.589,176.302z"/>
					</g>
					<g>
						<path style="fill:#263238;" d="M291.704,176.302c-0.144,0-0.26-7.778-0.26-17.371c0-9.596,0.117-17.373,0.26-17.373
							s0.26,7.776,0.26,17.373C291.964,168.524,291.847,176.302,291.704,176.302z"/>
					</g>
					<path style="fill:#263238;" d="M296.402,151.666c0,0.779,0.632,1.41,1.41,1.41c0.779,0,1.411-0.632,1.411-1.41
						c0-0.779-0.632-1.411-1.411-1.411C297.033,150.255,296.402,150.887,296.402,151.666z"/>
					<path style="fill:#263238;" d="M296.402,163.679c0,0.779,0.632,1.411,1.41,1.411c0.779,0,1.411-0.632,1.411-1.411
						c0-0.779-0.632-1.411-1.411-1.411C297.033,162.268,296.402,162.9,296.402,163.679z"/>
					<g>
						<path style="fill:#263238;" d="M280.589,246.97c0-0.144,8.948-0.26,19.983-0.26c11.039,0,19.984,0.117,19.984,0.26
							s-8.946,0.26-19.984,0.26C289.537,247.23,280.589,247.114,280.589,246.97z"/>
					</g>
					<g>
						<path style="fill:#263238;" d="M291.704,246.97c-0.144,0-0.26-7.778-0.26-17.371c0-9.596,0.117-17.373,0.26-17.373
							s0.26,7.777,0.26,17.373C291.964,239.192,291.847,246.97,291.704,246.97z"/>
					</g>
					<circle style="fill:#263238;" cx="297.812" cy="222.334" r="1.41"/>
					<circle style="fill:#263238;" cx="297.812" cy="234.347" r="1.41"/>
					<g>
						<path style="fill:#263238;" d="M320.556,211.951c0,0.144-8.948,0.26-19.983,0.26c-11.039,0-19.985-0.117-19.985-0.26
							s8.946-0.26,19.985-0.26C311.609,211.691,320.556,211.807,320.556,211.951z"/>
					</g>
					<g>
						<path style="fill:#263238;" d="M309.442,211.951c-0.144,0-0.26-7.778-0.26-17.371c0-9.596,0.117-17.373,0.26-17.373
							s0.26,7.776,0.26,17.373C309.703,204.173,309.586,211.951,309.442,211.951z"/>
					</g>
					<path style="fill:#263238;" d="M304.744,187.315c0,0.779-0.632,1.41-1.41,1.41c-0.779,0-1.411-0.632-1.411-1.41
						c0-0.779,0.632-1.411,1.411-1.411C304.112,185.904,304.744,186.536,304.744,187.315z"/>
					<path style="fill:#263238;" d="M304.744,199.328c0,0.779-0.632,1.411-1.41,1.411c-0.779,0-1.411-0.632-1.411-1.411
						c0-0.779,0.632-1.411,1.411-1.411C304.112,197.918,304.744,198.549,304.744,199.328z"/>
				</g>
				<g>
					<path style="fill:#FFFFFF;" d="M318.045,144.989c-0.085,0.009-0.231-1.117-0.624-2.897c-0.398-1.775-1.072-4.216-2.308-6.694
						c-0.624-1.234-1.332-2.346-2.05-3.302c-0.748-0.93-1.472-1.734-2.163-2.32c-1.359-1.199-2.368-1.737-2.318-1.823
						c0.017-0.032,0.277,0.084,0.736,0.323c0.233,0.115,0.509,0.269,0.809,0.483c0.304,0.207,0.662,0.43,1.011,0.736
						c0.739,0.565,1.512,1.364,2.302,2.305c0.759,0.966,1.5,2.102,2.139,3.366c1.266,2.539,1.894,5.043,2.204,6.856
						c0.152,0.91,0.24,1.651,0.266,2.165C318.08,144.701,318.081,144.986,318.045,144.989z"/>
				</g>
				<g>
					<path style="fill:#FFFFFF;" d="M301.813,126.245c0.024-0.142,0.69-0.147,1.487-0.011c0.797,0.136,1.424,0.36,1.4,0.502
						c-0.024,0.142-0.69,0.147-1.487,0.011C302.415,126.612,301.788,126.387,301.813,126.245z"/>
				</g>
			</g>
			<path style="fill:#E8505B;" d="M236.495,70.152l-14.059,26.534c-4.143,7.819-6.309,16.534-6.309,25.383v184.649l24.653,15.747
				h17.09l22.975-15.747V122.884c0-8.482-1.99-16.847-5.811-24.42L260.69,70.033c-1.625-3.22-4.924-5.251-8.531-5.251h-7.075
				C241.43,64.782,238.096,66.866,236.495,70.152z"/>
			<path style="fill:#E8505B;" d="M216.127,292.025h-62.009c0,0,0-27.322,25.933-46.772c25.933-19.45,36.076-63.443,36.076-63.443
				V292.025z"/>
			<path style="fill:#E8505B;" d="M280.845,292.025h62.009c0,0,0-27.322-25.933-46.772s-36.076-63.443-36.076-63.443V292.025z"/>
			<path style="opacity:0.2;" d="M216.127,292.025h-62.009c0,0,0-27.322,25.933-46.772c25.933-19.45,36.076-63.443,36.076-63.443
				V292.025z"/>
			<path style="opacity:0.2;" d="M280.845,292.025h62.009c0,0,0-27.322-25.933-46.772s-36.076-63.443-36.076-63.443V292.025z"/>
			<g>
				<path style="fill:#FAFAFA;" d="M220.691,195.49c-0.144,0-0.26-13.634-0.26-30.447c0-16.82,0.117-30.45,0.26-30.45
					c0.144,0,0.26,13.631,0.26,30.45C220.951,181.856,220.834,195.49,220.691,195.49z"/>
			</g>
			<g>
				<path style="fill:#FAFAFA;" d="M221.371,116.53c0.144,0,0.26,1.239,0.26,2.768c0,1.529-0.117,2.768-0.26,2.768
					s-0.26-1.239-0.26-2.768C221.111,117.769,221.228,116.53,221.371,116.53z"/>
			</g>
			<g>
				<path style="fill:#FAFAFA;" d="M241.378,69.379c0.128,0.066-4.106,8.575-9.457,19.004c-5.352,10.433-9.793,18.834-9.921,18.769
					c-0.128-0.066,4.106-8.574,9.458-19.006C236.808,77.716,241.25,69.313,241.378,69.379z"/>
			</g>
			<g>
				<path style="fill:#FAFAFA;" d="M209.418,210.609c0.009,0.001,0,0.084-0.025,0.243c-0.034,0.189-0.075,0.421-0.125,0.706
					c-0.062,0.323-0.136,0.704-0.221,1.145c-0.079,0.455-0.193,0.975-0.373,1.547c-0.571,2.327-1.788,5.611-3.865,9.366
					c-2.06,3.769-5.14,7.883-8.929,12.09c-3.806,4.199-8.358,8.454-13.171,12.851c-4.785,4.41-8.967,9.024-12.276,13.585
					c-1.69,2.257-3.085,4.546-4.366,6.698c-1.211,2.192-2.282,4.269-3.105,6.235c-1.678,3.917-2.645,7.245-3.173,9.57
					c-0.3,1.155-0.423,2.076-0.566,2.689c-0.061,0.282-0.11,0.512-0.15,0.7c-0.037,0.157-0.06,0.237-0.069,0.236
					c-0.009-0.001-0.003-0.084,0.016-0.244c0.027-0.19,0.059-0.423,0.1-0.709c0.11-0.619,0.201-1.549,0.472-2.716
					c0.47-2.347,1.387-5.709,3.032-9.67c0.807-1.987,1.865-4.088,3.068-6.303c1.272-2.175,2.664-4.489,4.354-6.767
					c3.309-4.606,7.505-9.256,12.312-13.687c4.814-4.399,9.36-8.629,13.168-12.791c3.79-4.17,6.878-8.232,8.963-11.949
					c2.101-3.704,3.362-6.941,3.99-9.239c0.193-0.565,0.322-1.078,0.417-1.528c0.104-0.436,0.193-0.812,0.269-1.131
					c0.071-0.28,0.129-0.508,0.176-0.694C209.383,210.686,209.409,210.607,209.418,210.609z"/>
			</g>
		</g>
		<path style="fill:#FFFFFF;" d="M253.833,128.096h-10.694c-6.473,0-11.72-5.247-11.72-11.72l0,0c0-6.473,5.247-11.72,11.72-11.72
			h10.694c6.473,0,11.72,5.247,11.72,11.72l0,0C265.553,122.849,260.306,128.096,253.833,128.096z"/>
	</g>
	<polyline style="opacity:0.4;" points="216.127,306.718 240.78,322.465 257.87,322.465 280.845,306.718 280.845,300.23 
		216.127,300.23 216.127,306.718 	"/>
</g>
</svg>
